<svg viewBox="0 0 19 13" fill="none" xmlns="http://www.w3.org/2000/svg">
<path d="M6.99994 12.9999C6.86833 13.0007 6.73787 12.9755 6.61603 12.9257C6.4942 12.8759 6.38338 12.8026 6.28994 12.7099L1.28994 7.70994C1.1967 7.6167 1.12274 7.50601 1.07228 7.38419C1.02182 7.26237 0.99585 7.1318 0.99585 6.99994C0.99585 6.73364 1.10164 6.47824 1.28994 6.28994C1.47825 6.10164 1.73364 5.99585 1.99994 5.99585C2.26624 5.99585 2.52164 6.10164 2.70994 6.28994L6.99994 10.5899L16.2899 1.28994C16.4782 1.10164 16.7336 0.99585 16.9999 0.99585C17.2662 0.99585 17.5216 1.10164 17.7099 1.28994C17.8982 1.47825 18.004 1.73364 18.004 1.99994C18.004 2.26624 17.8982 2.52164 17.7099 2.70994L7.70994 12.7099C7.6165 12.8026 7.50569 12.8759 7.38385 12.9257C7.26201 12.9755 7.13155 13.0007 6.99994 12.9999Z" fill="#006fb9"/>
</svg>
