<svg version="1.1" xmlns="http://www.w3.org/2000/svg" xmlns:xlink="http://www.w3.org/1999/xlink">
    
<symbol id="logo-black" viewBox="0 0 345 203">
       
        <path d="M10.43 116C13.99 116 16.64 117 18.37 118.83C20.1 120.66 20.98 123.49 20.98 127.13V133C20.98 136.647 20.11 139.413 18.37 141.3C16.63 143.187 13.9833 144.133 10.43 144.14H7.08V161H0V116H10.43ZM7.08 122.44V137.69H10.43C10.8969 137.72 11.3651 137.656 11.8067 137.502C12.2483 137.347 12.6541 137.105 13 136.79C13.7116 135.827 14.033 134.63 13.9 133.44V126.68C14.0315 125.493 13.71 124.3 13 123.34C12.6541 123.025 12.2483 122.783 11.8067 122.628C11.3651 122.474 10.8969 122.41 10.43 122.44H7.08Z" fill="#1D1E1B"/>
        <path d="M31.28 135H41V141.43H31.28V154.63H43.5099V161H24.2V116H43.5099V122.44H31.28V135Z" fill="#1D1E1B"/>
        <path d="M68.1501 144.23V150.23C68.1501 153.88 67.2701 156.67 65.4801 158.63C63.6901 160.59 61.07 161.56 57.6 161.56C54.13 161.56 51.5001 160.56 49.7201 158.63C47.9401 156.7 47.05 153.88 47.05 150.23V126.79C47.05 123.14 47.9401 120.35 49.7201 118.39C51.5001 116.43 54.13 115.46 57.6 115.46C61.07 115.46 63.7001 116.46 65.4801 118.39C67.2601 120.32 68.1501 123.14 68.1501 126.79V131.17H61.46V126.34C61.5885 125.107 61.2296 123.872 60.46 122.9C59.7204 122.254 58.7719 121.899 57.7901 121.899C56.8082 121.899 55.8597 122.254 55.12 122.9C54.3543 123.874 53.9959 125.107 54.12 126.34V150.67C53.9921 151.894 54.3514 153.119 55.12 154.08C55.8687 154.707 56.8138 155.05 57.7901 155.05C58.7663 155.05 59.7114 154.707 60.46 154.08C60.8431 153.605 61.1286 153.06 61.3002 152.475C61.4718 151.89 61.5261 151.276 61.46 150.67V144.23H68.1501Z" fill="#1D1E1B"/>
        <path d="M74.59 154.6C74.9953 154.641 75.4025 154.661 75.81 154.66H77C77.5293 154.665 78.057 154.601 78.57 154.47C79.0523 154.344 79.4956 154.1 79.86 153.76C80.2613 153.346 80.5504 152.837 80.7 152.28C80.9074 151.48 81.0017 150.656 80.98 149.83L70.73 116H77.81L85.59 142.39L92 116H99.08L89.81 149.21C89.2273 151.658 88.3963 154.041 87.33 156.32C86.7191 157.687 85.8062 158.897 84.66 159.86C83.7958 160.538 82.7539 160.951 81.66 161.05C80.56 161.14 79.35 161.18 78.02 161.18H76.26C75.7009 161.178 75.1427 161.135 74.59 161.05V154.6Z" fill="#1D1E1B"/>
        <path d="M112.75 116C116.31 116 118.96 117 120.75 118.83C122.54 120.66 123.36 123.49 123.36 127.13V133C123.36 136.647 122.49 139.413 120.75 141.3C119.01 143.187 116.343 144.133 112.75 144.14H109.41V161H102.33V116H112.75ZM109.41 122.44V137.69H112.75C113.218 137.72 113.688 137.656 114.131 137.501C114.574 137.347 114.982 137.105 115.33 136.79C116.042 135.827 116.363 134.63 116.23 133.44V126.68C116.361 125.493 116.04 124.3 115.33 123.34C114.982 123.025 114.574 122.783 114.131 122.629C113.688 122.474 113.218 122.41 112.75 122.44H109.41Z" fill="#1D1E1B"/>
        <path d="M147 144.23V150.23C147 153.88 146.11 156.67 144.33 158.63C142.55 160.59 139.92 161.56 136.45 161.56C132.98 161.56 130.34 160.56 128.56 158.63C126.78 156.7 125.89 153.88 125.89 150.23V126.79C125.89 123.14 126.78 120.35 128.56 118.39C130.34 116.43 132.97 115.46 136.45 115.46C139.93 115.46 142.55 116.46 144.33 118.39C146.11 120.32 147 123.14 147 126.79V131.17H140.3V126.34C140.424 125.107 140.066 123.874 139.3 122.9C138.56 122.254 137.612 121.899 136.63 121.899C135.648 121.899 134.7 122.254 133.96 122.9C133.19 123.872 132.832 125.107 132.96 126.34V150.67C132.894 151.276 132.948 151.89 133.12 152.475C133.291 153.06 133.577 153.605 133.96 154.08C134.709 154.707 135.654 155.05 136.63 155.05C137.606 155.05 138.551 154.707 139.3 154.08C140.069 153.119 140.428 151.894 140.3 150.67V144.23H147Z" fill="#1D1E1B"/>
        <path d="M158.57 161H151.49V116H170.22V122.44H158.57V161Z" fill="#006FB9"/>
        <path d="M196.29 161H189.14L187.92 152.83H179.23L178 161H171.5L178.71 116H189.07L196.29 161ZM180.13 146.71H187L183.54 124L180.13 146.71Z" fill="#006FB9"/>
        <path d="M212.89 127.05C212.89 125.05 212.56 123.67 211.89 122.96C211.545 122.604 211.129 122.326 210.669 122.143C210.209 121.961 209.715 121.878 209.22 121.9C208.73 121.875 208.241 121.952 207.782 122.124C207.322 122.296 206.903 122.56 206.55 122.9C205.784 123.874 205.426 125.107 205.55 126.34V131.17H198.86V126.79C198.86 123.14 199.75 120.35 201.53 118.39C203.31 116.43 205.94 115.46 209.41 115.46C212.88 115.46 215.52 116.46 217.3 118.39C219.08 120.32 219.97 123.14 219.97 126.79V128C219.97 132.807 218.303 135.897 214.97 137.27C216.654 137.929 218.024 139.206 218.8 140.84C219.602 142.697 219.987 144.708 219.93 146.73V150.27C219.93 153.92 219.04 156.71 217.26 158.67C215.48 160.63 212.85 161.6 209.37 161.6C205.89 161.6 203.27 160.6 201.49 158.67C199.71 156.74 198.82 153.92 198.82 150.27V144.61H205.51V150.72C205.386 151.953 205.744 153.186 206.51 154.16C206.863 154.5 207.282 154.764 207.742 154.936C208.201 155.108 208.69 155.184 209.18 155.16C209.67 155.189 210.161 155.115 210.621 154.942C211.081 154.77 211.499 154.504 211.85 154.16C212.52 153.47 212.85 152.16 212.85 150.11V146.57C212.85 144.46 212.48 142.98 211.75 142.13C211.293 141.665 210.738 141.308 210.126 141.085C209.513 140.862 208.859 140.778 208.21 140.84H207.12V134.4H208.6C209.73 134.478 210.846 134.12 211.72 133.4C212.47 132.72 212.85 131.47 212.85 129.67L212.89 127.05Z" fill="#006FB9"/>
        <path d="M244.94 144.23V150.23C244.94 153.88 244.05 156.67 242.27 158.63C240.49 160.59 237.86 161.56 234.38 161.56C230.9 161.56 228.28 160.56 226.5 158.63C224.72 156.7 223.83 153.88 223.83 150.23V126.79C223.83 123.14 224.72 120.35 226.5 118.39C228.28 116.43 230.91 115.46 234.38 115.46C237.85 115.46 240.49 116.46 242.27 118.39C244.05 120.32 244.94 123.14 244.94 126.79V131.17H238.24V126.34C238.364 125.107 238.006 123.874 237.24 122.9C236.5 122.254 235.552 121.899 234.57 121.899C233.588 121.899 232.64 122.254 231.9 122.9C231.13 123.872 230.772 125.107 230.9 126.34V150.67C230.834 151.276 230.888 151.89 231.06 152.475C231.231 153.06 231.517 153.605 231.9 154.08C232.649 154.707 233.594 155.05 234.57 155.05C235.546 155.05 236.491 154.707 237.24 154.08C238.009 153.119 238.368 151.894 238.24 150.67V144.23H244.94Z" fill="#1D1E1B"/>
        <path d="M247.51 116H269.39V122.44H262V161H254.92V122.42H247.52L247.51 116Z" fill="#1D1E1B"/>
        <path d="M283 116C286.57 116 289.22 117 291 118.83C292.78 120.66 293.61 123.49 293.61 127.13V133C293.61 136.647 292.74 139.413 291 141.3C289.26 143.187 286.593 144.133 283 144.14H279.66V161H272.58V116H283ZM279.66 122.44V137.69H283C283.468 137.721 283.938 137.658 284.382 137.503C284.825 137.348 285.233 137.106 285.58 136.79C286.292 135.827 286.613 134.63 286.48 133.44V126.68C286.611 125.493 286.29 124.3 285.58 123.34C285.233 123.024 284.825 122.782 284.382 122.627C283.938 122.472 283.468 122.409 283 122.44H279.66Z" fill="#1D1E1B"/>
        <path d="M296.16 126.79C296.16 123.14 297.09 120.35 298.93 118.39C300.77 116.43 303.44 115.46 306.93 115.46C310.42 115.46 313.07 116.46 314.93 118.39C316.79 120.32 317.7 123.14 317.7 126.79V150.22C317.7 153.87 316.78 156.66 314.93 158.62C313.08 160.58 310.43 161.55 306.93 161.55C303.43 161.55 300.8 160.55 298.93 158.62C297.06 156.69 296.16 153.87 296.16 150.22V126.79ZM303.24 150.67C303.116 151.903 303.474 153.136 304.24 154.11C304.98 154.756 305.928 155.111 306.91 155.111C307.892 155.111 308.84 154.756 309.58 154.11C310.35 153.138 310.708 151.903 310.58 150.67V126.34C310.708 125.107 310.35 123.872 309.58 122.9C308.84 122.254 307.892 121.899 306.91 121.899C305.928 121.899 304.98 122.254 304.24 122.9C303.474 123.874 303.116 125.107 303.24 126.34V150.67Z" fill="#1D1E1B"/>
        <path d="M329.44 161H322.17V116H328.47V143L335.74 116H344.63V161H338.25V128.4L329.44 161ZM341.28 108.16V113.44H325.7V108.16H341.28Z" fill="#1D1E1B"/>
        <path d="M344.63 172H0V175.2H344.63V172Z" fill="#1D1E1B"/>
        <path d="M181.17 64.2201C180.13 49.581 181.347 34.869 184.78 20.6001C175.518 33.4159 171.054 49.0792 172.169 64.8522C173.284 80.6252 179.907 95.5047 190.88 106.89C185.473 93.2492 182.198 78.8574 181.17 64.2201Z" fill="#006FB9"/>
        <path d="M190 42.67C188.96 28.0294 185.668 13.6369 180.24 0C191.21 11.3845 197.832 26.2612 198.949 42.0315C200.065 57.8018 195.606 73.4632 186.35 86.28C189.801 72.0174 191.033 57.3079 190 42.67Z" fill="#006FB9"/>
        <path d="M207.25 84.57C206.665 76.4253 207.34 68.2392 209.25 60.3C204.101 67.4302 201.62 76.142 202.24 84.9148C202.859 93.6877 206.54 101.964 212.64 108.3C209.638 100.713 207.82 92.7096 207.25 84.57Z" fill="#006FB9"/>
        <path d="M212.14 72.5801C211.564 64.4363 209.739 56.4295 206.73 48.8401C212.833 55.1736 216.517 63.4499 217.138 72.2233C217.76 80.9967 215.279 89.7095 210.13 96.8401C212.039 88.9041 212.717 80.722 212.14 72.5801Z" fill="#006FB9"/>
        <path d="M161.29 84.57C161.87 76.4254 161.195 68.24 159.29 60.3C164.441 67.4299 166.923 76.1432 166.301 84.9171C165.68 93.691 161.995 101.968 155.89 108.3C158.9 100.715 160.722 92.7108 161.29 84.57Z" fill="#006FB9"/>
        <path d="M156.41 72.5801C156.978 64.4361 158.8 56.4285 161.81 48.8401C155.707 55.1736 152.023 63.4499 151.402 72.2233C150.78 80.9967 153.261 89.7095 158.41 96.8401C156.505 88.9036 155.83 80.7215 156.41 72.5801Z" fill="#006FB9"/>
        <path d="M7.33005 195.15L9.07005 195.37C8.93902 196.452 8.42036 197.45 7.61005 198.18C6.8082 198.86 5.78112 199.217 4.73005 199.18C4.09297 199.208 3.45729 199.099 2.86569 198.861C2.27408 198.623 1.74025 198.261 1.30005 197.8C0.36901 196.683 -0.0964955 195.251 4.81885e-05 193.8C-0.0200145 192.788 0.170697 191.784 0.560048 190.85C0.905845 190.062 1.50388 189.411 2.26005 189C3.02008 188.573 3.87845 188.353 4.75005 188.36C5.7449 188.319 6.72342 188.623 7.52005 189.22C8.26507 189.835 8.75652 190.704 8.90005 191.66L7.18005 191.92C7.06944 191.315 6.76806 190.761 6.32005 190.34C5.90035 189.988 5.36761 189.8 4.82005 189.81C4.4062 189.801 3.99578 189.887 3.61984 190.06C3.24389 190.233 2.91227 190.49 2.65005 190.81C2.02178 191.678 1.72392 192.742 1.81005 193.81C1.72886 194.873 2.01477 195.932 2.62005 196.81C2.86841 197.128 3.18749 197.384 3.55199 197.558C3.91649 197.731 4.3164 197.818 4.72005 197.81C5.35636 197.831 5.97612 197.605 6.45005 197.18C6.98152 196.633 7.29455 195.911 7.33005 195.15Z" fill="#1D1E1B"/>
        <path d="M15.85 188.55H24.31V190H21V199H19.2V190H15.85V188.55Z" fill="#1D1E1B"/>
        <path d="M32.22 203V188.6H33.83V189.95C34.1657 189.465 34.6024 189.059 35.11 188.76C35.6437 188.483 36.2388 188.345 36.84 188.36C37.6787 188.343 38.5024 188.584 39.2 189.05C39.8958 189.528 40.4322 190.204 40.74 190.99C41.0915 191.86 41.2682 192.791 41.26 193.73C41.2711 194.717 41.0735 195.695 40.68 196.6C40.3439 197.421 39.7646 198.118 39.02 198.6C38.3347 199.043 37.5361 199.279 36.72 199.28C36.1705 199.292 35.627 199.164 35.14 198.91C34.692 198.681 34.2969 198.361 33.98 197.97V203H32.22ZM33.82 193.86C33.7287 194.924 34.0155 195.986 34.63 196.86C34.8623 197.171 35.1641 197.423 35.5114 197.597C35.8587 197.771 36.2417 197.861 36.63 197.86C37.0175 197.857 37.3993 197.765 37.7459 197.592C38.0926 197.419 38.395 197.168 38.63 196.86C39.1697 195.94 39.4542 194.892 39.4542 193.825C39.4542 192.758 39.1697 191.71 38.63 190.79C38.3976 190.479 38.0958 190.226 37.7485 190.053C37.4013 189.879 37.0182 189.789 36.63 189.79C36.2385 189.8 35.8546 189.9 35.5079 190.082C35.1612 190.264 34.8608 190.524 34.63 190.84C34.0378 191.713 33.7528 192.757 33.82 193.81V193.86Z" fill="#1D1E1B"/>
        <path d="M49 193.75C48.9375 192.962 49.0494 192.17 49.3276 191.43C49.6059 190.691 50.0437 190.021 50.61 189.47C51.5201 188.694 52.6844 188.281 53.88 188.31C54.531 188.287 55.1797 188.401 55.7841 188.644C56.3886 188.887 56.9356 189.253 57.39 189.72C57.8614 190.245 58.2242 190.858 58.4576 191.524C58.691 192.19 58.7904 192.896 58.75 193.6C58.8022 194.689 58.5966 195.775 58.15 196.77C57.7596 197.529 57.1498 198.153 56.4 198.56C55.6271 198.981 54.7599 199.197 53.88 199.19C53.2263 199.218 52.5741 199.107 51.9659 198.866C51.3577 198.625 50.8071 198.258 50.35 197.79C49.3844 196.674 48.8992 195.222 49 193.75ZM50.81 193.75C50.7317 194.823 51.0443 195.889 51.69 196.75C51.9631 197.062 52.2998 197.312 52.6775 197.484C53.0552 197.655 53.4652 197.744 53.88 197.744C54.2948 197.744 54.7048 197.655 55.0825 197.484C55.4602 197.312 55.7969 197.062 56.07 196.75C56.7073 195.885 57.0157 194.822 56.94 193.75C57.0177 192.698 56.7043 191.655 56.06 190.82C55.7934 190.502 55.4595 190.248 55.0825 190.075C54.7055 189.902 54.2948 189.815 53.88 189.82C53.4638 189.815 53.0516 189.902 52.6729 190.075C52.2943 190.247 51.9586 190.502 51.69 190.82C51.0402 191.654 50.7103 192.694 50.76 193.75H50.81Z" fill="#1D1E1B"/>
        <path d="M67 188.55H68.76V196.49L73.65 188.55H75.55V199H73.79V191.11L68.9 199H67V188.55Z" fill="#1D1E1B"/>
        <path d="M83.48 188.55H91.94V190H88.59V199H86.83V190H83.48V188.55Z" fill="#1D1E1B"/>
        <path d="M106.75 195.61L108.58 195.83C108.342 196.814 107.778 197.688 106.98 198.31C105.976 198.963 104.785 199.266 103.592 199.172C102.398 199.078 101.269 198.592 100.38 197.79C99.4147 196.708 98.9184 195.288 99 193.84C98.9079 192.357 99.3914 190.895 100.35 189.76C100.798 189.282 101.343 188.906 101.948 188.656C102.554 188.406 103.205 188.288 103.86 188.31C104.498 188.29 105.132 188.407 105.721 188.654C106.309 188.901 106.837 189.271 107.27 189.74C108.211 190.852 108.684 192.286 108.59 193.74V194.22H100.82C100.826 195.185 101.181 196.116 101.82 196.84C102.098 197.137 102.437 197.372 102.812 197.529C103.188 197.686 103.593 197.761 104 197.75C104.594 197.767 105.178 197.587 105.66 197.24C106.18 196.82 106.56 196.251 106.75 195.61ZM101 192.75H106.81C106.794 192.033 106.564 191.336 106.15 190.75C105.885 190.428 105.55 190.171 105.17 189.998C104.791 189.824 104.377 189.74 103.96 189.75C103.589 189.748 103.221 189.819 102.878 189.96C102.535 190.101 102.223 190.308 101.96 190.57C101.374 191.148 101.031 191.928 101 192.75Z" fill="#1D1E1B"/>
        <path d="M117.21 188.55H125.41V199H123.65V190H119V195.19C119.024 195.989 118.984 196.788 118.88 197.58C118.788 197.98 118.558 198.334 118.23 198.58C117.784 198.893 117.244 199.045 116.7 199.01C116.29 199.01 115.82 199.01 115.28 198.93V197.46H116C116.265 197.473 116.529 197.436 116.78 197.35C116.93 197.277 117.045 197.148 117.1 196.99C117.17 196.46 117.193 195.924 117.17 195.39L117.21 188.55Z" fill="#1D1E1B"/>
        <path d="M134.26 188.55H136V192.62H138.24C139.42 192.548 140.593 192.841 141.6 193.46C141.977 193.72 142.283 194.07 142.489 194.479C142.695 194.888 142.795 195.342 142.78 195.8C142.783 196.222 142.695 196.639 142.523 197.024C142.35 197.409 142.097 197.752 141.78 198.03C140.885 198.727 139.76 199.059 138.63 198.96H134.22L134.26 188.55ZM136.02 197.55H137.87C138.689 197.608 139.51 197.464 140.26 197.13C140.489 197.007 140.678 196.821 140.806 196.595C140.933 196.368 140.994 196.11 140.98 195.85C140.978 195.625 140.93 195.402 140.839 195.195C140.747 194.989 140.615 194.804 140.45 194.65C139.758 194.2 138.928 194.012 138.11 194.12H136L136.02 197.55Z" fill="#1D1E1B"/>
        <path d="M151 188.55H152.76V192.88H157.65V188.55H159.42V199H157.65V194.38H152.76V199H151V188.55Z" fill="#1D1E1B"/>
        <path d="M175.07 197.68C174.511 198.174 173.872 198.57 173.18 198.85C172.56 199.082 171.902 199.197 171.24 199.19C170.287 199.257 169.343 198.96 168.6 198.36C168.137 197.91 167.831 197.322 167.728 196.685C167.625 196.047 167.731 195.393 168.03 194.82C168.247 194.418 168.56 194.074 168.94 193.82C169.331 193.563 169.76 193.368 170.21 193.24C170.727 193.118 171.251 193.031 171.78 192.98C172.845 192.884 173.897 192.68 174.92 192.37C174.92 192.13 174.92 191.98 174.92 191.91C174.946 191.636 174.915 191.359 174.829 191.098C174.743 190.836 174.604 190.595 174.42 190.39C173.849 189.952 173.138 189.739 172.42 189.79C171.779 189.742 171.139 189.896 170.59 190.23C170.129 190.628 169.819 191.171 169.71 191.77L167.98 191.54C168.099 190.891 168.366 190.279 168.76 189.75C169.178 189.284 169.713 188.938 170.31 188.75C171.073 188.493 171.875 188.368 172.68 188.38C173.417 188.358 174.151 188.466 174.85 188.7C175.318 188.853 175.739 189.125 176.07 189.49C176.347 189.84 176.536 190.252 176.62 190.69C176.696 191.23 176.726 191.775 176.71 192.32V194.67C176.68 195.708 176.717 196.747 176.82 197.78C176.893 198.22 177.046 198.644 177.27 199.03H175.42C175.222 198.605 175.103 198.148 175.07 197.68ZM174.92 193.68C173.989 194.014 173.023 194.239 172.04 194.35C171.514 194.403 170.997 194.521 170.5 194.7C170.217 194.819 169.976 195.021 169.81 195.28C169.644 195.525 169.557 195.814 169.56 196.11C169.555 196.334 169.601 196.556 169.692 196.76C169.784 196.964 169.92 197.145 170.09 197.29C170.537 197.636 171.097 197.803 171.66 197.76C172.291 197.77 172.914 197.619 173.47 197.32C173.979 197.042 174.388 196.612 174.64 196.09C174.858 195.53 174.953 194.93 174.92 194.33V193.68Z" fill="#1D1E1B"/>
        <path d="M193.86 188.55V199H192.11V194.9H191.11C190.638 194.87 190.165 194.952 189.73 195.14C189.188 195.56 188.736 196.083 188.4 196.68L186.83 199H184.65L186.55 196.2C186.914 195.506 187.535 194.982 188.28 194.74C187.422 194.684 186.619 194.297 186.04 193.66C185.567 193.101 185.309 192.392 185.31 191.66C185.3 191.242 185.385 190.827 185.558 190.446C185.732 190.065 185.989 189.728 186.31 189.46C187.099 188.849 188.085 188.55 189.08 188.62L193.86 188.55ZM192.11 190H189.6C188.896 189.911 188.184 190.086 187.6 190.49C187.304 190.8 187.139 191.212 187.14 191.64C187.122 191.907 187.175 192.173 187.295 192.413C187.414 192.652 187.596 192.855 187.82 193C188.556 193.358 189.375 193.51 190.19 193.44H192.19L192.11 190Z" fill="#1D1E1B"/>
        <path d="M214.55 188.55H216.31V193.05C216.729 193.091 217.149 192.978 217.49 192.73C217.917 192.154 218.254 191.517 218.49 190.84C218.707 190.269 218.988 189.726 219.33 189.22C219.522 188.973 219.783 188.789 220.08 188.69C220.521 188.579 220.976 188.532 221.43 188.55H221.78V190H221.29C220.978 189.958 220.661 190.033 220.4 190.21C220.129 190.604 219.917 191.035 219.77 191.49C219.601 191.995 219.354 192.47 219.04 192.9C218.758 193.205 218.418 193.45 218.04 193.62C219.025 194.023 219.824 194.779 220.28 195.74L222.21 198.96H220.21L218.33 195.74C218.081 195.251 217.742 194.813 217.33 194.45C217.035 194.25 216.686 194.145 216.33 194.15V199H214.57L214.55 188.55Z" fill="#1D1E1B"/>
        <path d="M229.13 193.75C229.068 192.962 229.179 192.17 229.458 191.43C229.736 190.691 230.174 190.021 230.74 189.47C231.653 188.693 232.821 188.28 234.02 188.31C234.67 188.287 235.317 188.401 235.919 188.644C236.522 188.887 237.068 189.253 237.52 189.72C237.993 190.245 238.357 190.857 238.592 191.523C238.827 192.189 238.928 192.895 238.89 193.6C238.944 194.69 238.735 195.778 238.28 196.77C237.89 197.529 237.28 198.153 236.53 198.56C235.76 198.979 234.897 199.196 234.02 199.19C233.365 199.218 232.711 199.108 232.101 198.867C231.491 198.626 230.939 198.259 230.48 197.79C229.514 196.674 229.029 195.222 229.13 193.75ZM230.95 193.75C230.869 194.822 231.178 195.888 231.82 196.75C232.089 197.07 232.426 197.326 232.807 197.5C233.187 197.673 233.602 197.758 234.02 197.75C234.435 197.758 234.847 197.672 235.224 197.499C235.602 197.326 235.935 197.07 236.2 196.75C236.837 195.885 237.146 194.822 237.07 193.75C237.148 192.698 236.834 191.655 236.19 190.82C235.925 190.503 235.593 190.249 235.217 190.076C234.842 189.903 234.433 189.816 234.02 189.82C233.602 189.814 233.188 189.9 232.808 190.073C232.428 190.246 232.09 190.501 231.82 190.82C231.209 191.669 230.919 192.707 231 193.75H230.95Z" fill="#1D1E1B"/>
        <path d="M247.23 188.55H250L252.74 196.88L255.74 188.55H258.28V199H256.52V190.62L253.44 199H251.86L249 190.18V199H247.28L247.23 188.55Z" fill="#1D1E1B"/>
        <path d="M267.21 188.55H275.43V199H273.66V190H269V199H267.23L267.21 188.55Z" fill="#1D1E1B"/>
        <path d="M291.09 197.68C290.531 198.174 289.892 198.57 289.2 198.85C288.576 199.082 287.915 199.198 287.25 199.19C286.3 199.256 285.36 198.96 284.62 198.36C284.32 198.092 284.082 197.761 283.923 197.392C283.764 197.022 283.688 196.622 283.7 196.22C283.692 195.732 283.809 195.25 284.04 194.82C284.264 194.419 284.579 194.077 284.96 193.82C285.351 193.563 285.78 193.368 286.23 193.24C286.744 193.118 287.265 193.031 287.79 192.98C288.858 192.885 289.914 192.681 290.94 192.37C290.94 192.13 290.94 191.98 290.94 191.91C290.966 191.636 290.935 191.359 290.849 191.098C290.763 190.836 290.623 190.595 290.44 190.39C289.869 189.952 289.158 189.738 288.44 189.79C287.799 189.742 287.159 189.896 286.61 190.23C286.149 190.627 285.838 191.171 285.73 191.77L284 191.54C284.114 190.89 284.382 190.276 284.78 189.75C285.196 189.282 285.732 188.936 286.33 188.75C287.09 188.494 287.888 188.369 288.69 188.38C289.427 188.356 290.161 188.465 290.86 188.7C291.331 188.853 291.755 189.125 292.09 189.49C292.368 189.838 292.553 190.251 292.63 190.69C292.706 191.23 292.736 191.775 292.72 192.32V194.67C292.691 195.708 292.731 196.747 292.84 197.78C292.914 198.219 293.063 198.641 293.28 199.03H291.44C291.241 198.605 291.123 198.148 291.09 197.68ZM290.94 193.68C290.009 194.014 289.043 194.239 288.06 194.35C287.534 194.403 287.017 194.521 286.52 194.7C286.235 194.822 285.992 195.023 285.82 195.28C285.625 195.594 285.547 195.967 285.6 196.333C285.653 196.699 285.834 197.034 286.11 197.28C286.557 197.626 287.116 197.793 287.68 197.75C288.311 197.759 288.934 197.607 289.49 197.31C289.999 197.032 290.408 196.602 290.66 196.08C290.878 195.52 290.973 194.92 290.94 194.32V193.68Z" fill="#1D1E1B"/>
        <path d="M301.69 188.55H303.46V192.88H308.35V188.55H310.11V199H308.35V194.38H303.46V199H301.69V188.55Z" fill="#1D1E1B"/>
        <path d="M319 188.55H320.77V196.49L325.66 188.55H327.56V199H325.79V191.11L320.89 199H319V188.55Z" fill="#1D1E1B"/>
        <path d="M344.63 188.55V199H342.87V194.9H341.87C341.394 194.873 340.919 194.955 340.48 195.14C339.944 195.565 339.493 196.088 339.15 196.68L337.6 199H335.41L337.31 196.2C337.681 195.508 338.304 194.985 339.05 194.74C338.191 194.686 337.387 194.298 336.81 193.66C336.337 193.101 336.079 192.392 336.08 191.66C336.066 191.246 336.143 190.834 336.308 190.453C336.472 190.073 336.719 189.734 337.03 189.46C337.82 188.851 338.805 188.552 339.8 188.62L344.63 188.55ZM342.87 190H340.36C339.656 189.91 338.943 190.085 338.36 190.49C338.06 190.797 337.895 191.211 337.9 191.64C337.88 191.906 337.931 192.172 338.049 192.412C338.167 192.651 338.347 192.854 338.57 193C339.309 193.358 340.132 193.51 340.95 193.44H342.9L342.87 190Z" fill="#1D1E1B"/>
    </symbol>


    <symbol id="logo-white" viewBox="0 0 345 203">
       
        <path d="M10.43 116C13.99 116 16.64 117 18.37 118.83C20.1 120.66 20.98 123.49 20.98 127.13V133C20.98 136.647 20.11 139.413 18.37 141.3C16.63 143.187 13.9833 144.133 10.43 144.14H7.08V161H0V116H10.43ZM7.08 122.44V137.69H10.43C10.8969 137.72 11.3651 137.656 11.8067 137.502C12.2483 137.347 12.6541 137.105 13 136.79C13.7116 135.827 14.033 134.63 13.9 133.44V126.68C14.0315 125.493 13.71 124.3 13 123.34C12.6541 123.025 12.2483 122.783 11.8067 122.628C11.3651 122.474 10.8969 122.41 10.43 122.44H7.08Z" fill="#fff"/>
        <path d="M31.28 135H41V141.43H31.28V154.63H43.5099V161H24.2V116H43.5099V122.44H31.28V135Z" fill="#fff"/>
        <path d="M68.1501 144.23V150.23C68.1501 153.88 67.2701 156.67 65.4801 158.63C63.6901 160.59 61.07 161.56 57.6 161.56C54.13 161.56 51.5001 160.56 49.7201 158.63C47.9401 156.7 47.05 153.88 47.05 150.23V126.79C47.05 123.14 47.9401 120.35 49.7201 118.39C51.5001 116.43 54.13 115.46 57.6 115.46C61.07 115.46 63.7001 116.46 65.4801 118.39C67.2601 120.32 68.1501 123.14 68.1501 126.79V131.17H61.46V126.34C61.5885 125.107 61.2296 123.872 60.46 122.9C59.7204 122.254 58.7719 121.899 57.7901 121.899C56.8082 121.899 55.8597 122.254 55.12 122.9C54.3543 123.874 53.9959 125.107 54.12 126.34V150.67C53.9921 151.894 54.3514 153.119 55.12 154.08C55.8687 154.707 56.8138 155.05 57.7901 155.05C58.7663 155.05 59.7114 154.707 60.46 154.08C60.8431 153.605 61.1286 153.06 61.3002 152.475C61.4718 151.89 61.5261 151.276 61.46 150.67V144.23H68.1501Z" fill="#fff"/>
        <path d="M74.59 154.6C74.9953 154.641 75.4025 154.661 75.81 154.66H77C77.5293 154.665 78.057 154.601 78.57 154.47C79.0523 154.344 79.4956 154.1 79.86 153.76C80.2613 153.346 80.5504 152.837 80.7 152.28C80.9074 151.48 81.0017 150.656 80.98 149.83L70.73 116H77.81L85.59 142.39L92 116H99.08L89.81 149.21C89.2273 151.658 88.3963 154.041 87.33 156.32C86.7191 157.687 85.8062 158.897 84.66 159.86C83.7958 160.538 82.7539 160.951 81.66 161.05C80.56 161.14 79.35 161.18 78.02 161.18H76.26C75.7009 161.178 75.1427 161.135 74.59 161.05V154.6Z" fill="#fff"/>
        <path d="M112.75 116C116.31 116 118.96 117 120.75 118.83C122.54 120.66 123.36 123.49 123.36 127.13V133C123.36 136.647 122.49 139.413 120.75 141.3C119.01 143.187 116.343 144.133 112.75 144.14H109.41V161H102.33V116H112.75ZM109.41 122.44V137.69H112.75C113.218 137.72 113.688 137.656 114.131 137.501C114.574 137.347 114.982 137.105 115.33 136.79C116.042 135.827 116.363 134.63 116.23 133.44V126.68C116.361 125.493 116.04 124.3 115.33 123.34C114.982 123.025 114.574 122.783 114.131 122.629C113.688 122.474 113.218 122.41 112.75 122.44H109.41Z" fill="#fff"/>
        <path d="M147 144.23V150.23C147 153.88 146.11 156.67 144.33 158.63C142.55 160.59 139.92 161.56 136.45 161.56C132.98 161.56 130.34 160.56 128.56 158.63C126.78 156.7 125.89 153.88 125.89 150.23V126.79C125.89 123.14 126.78 120.35 128.56 118.39C130.34 116.43 132.97 115.46 136.45 115.46C139.93 115.46 142.55 116.46 144.33 118.39C146.11 120.32 147 123.14 147 126.79V131.17H140.3V126.34C140.424 125.107 140.066 123.874 139.3 122.9C138.56 122.254 137.612 121.899 136.63 121.899C135.648 121.899 134.7 122.254 133.96 122.9C133.19 123.872 132.832 125.107 132.96 126.34V150.67C132.894 151.276 132.948 151.89 133.12 152.475C133.291 153.06 133.577 153.605 133.96 154.08C134.709 154.707 135.654 155.05 136.63 155.05C137.606 155.05 138.551 154.707 139.3 154.08C140.069 153.119 140.428 151.894 140.3 150.67V144.23H147Z" fill="#fff"/>
        <path d="M158.57 161H151.49V116H170.22V122.44H158.57V161Z" fill="#006FB9"/>
        <path d="M196.29 161H189.14L187.92 152.83H179.23L178 161H171.5L178.71 116H189.07L196.29 161ZM180.13 146.71H187L183.54 124L180.13 146.71Z" fill="#006FB9"/>
        <path d="M212.89 127.05C212.89 125.05 212.56 123.67 211.89 122.96C211.545 122.604 211.129 122.326 210.669 122.143C210.209 121.961 209.715 121.878 209.22 121.9C208.73 121.875 208.241 121.952 207.782 122.124C207.322 122.296 206.903 122.56 206.55 122.9C205.784 123.874 205.426 125.107 205.55 126.34V131.17H198.86V126.79C198.86 123.14 199.75 120.35 201.53 118.39C203.31 116.43 205.94 115.46 209.41 115.46C212.88 115.46 215.52 116.46 217.3 118.39C219.08 120.32 219.97 123.14 219.97 126.79V128C219.97 132.807 218.303 135.897 214.97 137.27C216.654 137.929 218.024 139.206 218.8 140.84C219.602 142.697 219.987 144.708 219.93 146.73V150.27C219.93 153.92 219.04 156.71 217.26 158.67C215.48 160.63 212.85 161.6 209.37 161.6C205.89 161.6 203.27 160.6 201.49 158.67C199.71 156.74 198.82 153.92 198.82 150.27V144.61H205.51V150.72C205.386 151.953 205.744 153.186 206.51 154.16C206.863 154.5 207.282 154.764 207.742 154.936C208.201 155.108 208.69 155.184 209.18 155.16C209.67 155.189 210.161 155.115 210.621 154.942C211.081 154.77 211.499 154.504 211.85 154.16C212.52 153.47 212.85 152.16 212.85 150.11V146.57C212.85 144.46 212.48 142.98 211.75 142.13C211.293 141.665 210.738 141.308 210.126 141.085C209.513 140.862 208.859 140.778 208.21 140.84H207.12V134.4H208.6C209.73 134.478 210.846 134.12 211.72 133.4C212.47 132.72 212.85 131.47 212.85 129.67L212.89 127.05Z" fill="#006FB9"/>
        <path d="M244.94 144.23V150.23C244.94 153.88 244.05 156.67 242.27 158.63C240.49 160.59 237.86 161.56 234.38 161.56C230.9 161.56 228.28 160.56 226.5 158.63C224.72 156.7 223.83 153.88 223.83 150.23V126.79C223.83 123.14 224.72 120.35 226.5 118.39C228.28 116.43 230.91 115.46 234.38 115.46C237.85 115.46 240.49 116.46 242.27 118.39C244.05 120.32 244.94 123.14 244.94 126.79V131.17H238.24V126.34C238.364 125.107 238.006 123.874 237.24 122.9C236.5 122.254 235.552 121.899 234.57 121.899C233.588 121.899 232.64 122.254 231.9 122.9C231.13 123.872 230.772 125.107 230.9 126.34V150.67C230.834 151.276 230.888 151.89 231.06 152.475C231.231 153.06 231.517 153.605 231.9 154.08C232.649 154.707 233.594 155.05 234.57 155.05C235.546 155.05 236.491 154.707 237.24 154.08C238.009 153.119 238.368 151.894 238.24 150.67V144.23H244.94Z" fill="#fff"/>
        <path d="M247.51 116H269.39V122.44H262V161H254.92V122.42H247.52L247.51 116Z" fill="#fff"/>
        <path d="M283 116C286.57 116 289.22 117 291 118.83C292.78 120.66 293.61 123.49 293.61 127.13V133C293.61 136.647 292.74 139.413 291 141.3C289.26 143.187 286.593 144.133 283 144.14H279.66V161H272.58V116H283ZM279.66 122.44V137.69H283C283.468 137.721 283.938 137.658 284.382 137.503C284.825 137.348 285.233 137.106 285.58 136.79C286.292 135.827 286.613 134.63 286.48 133.44V126.68C286.611 125.493 286.29 124.3 285.58 123.34C285.233 123.024 284.825 122.782 284.382 122.627C283.938 122.472 283.468 122.409 283 122.44H279.66Z" fill="#fff"/>
        <path d="M296.16 126.79C296.16 123.14 297.09 120.35 298.93 118.39C300.77 116.43 303.44 115.46 306.93 115.46C310.42 115.46 313.07 116.46 314.93 118.39C316.79 120.32 317.7 123.14 317.7 126.79V150.22C317.7 153.87 316.78 156.66 314.93 158.62C313.08 160.58 310.43 161.55 306.93 161.55C303.43 161.55 300.8 160.55 298.93 158.62C297.06 156.69 296.16 153.87 296.16 150.22V126.79ZM303.24 150.67C303.116 151.903 303.474 153.136 304.24 154.11C304.98 154.756 305.928 155.111 306.91 155.111C307.892 155.111 308.84 154.756 309.58 154.11C310.35 153.138 310.708 151.903 310.58 150.67V126.34C310.708 125.107 310.35 123.872 309.58 122.9C308.84 122.254 307.892 121.899 306.91 121.899C305.928 121.899 304.98 122.254 304.24 122.9C303.474 123.874 303.116 125.107 303.24 126.34V150.67Z" fill="#fff"/>
        <path d="M329.44 161H322.17V116H328.47V143L335.74 116H344.63V161H338.25V128.4L329.44 161ZM341.28 108.16V113.44H325.7V108.16H341.28Z" fill="#fff"/>
        <path d="M344.63 172H0V175.2H344.63V172Z" fill="#fff"/>
        <path d="M181.17 64.2201C180.13 49.581 181.347 34.869 184.78 20.6001C175.518 33.4159 171.054 49.0792 172.169 64.8522C173.284 80.6252 179.907 95.5047 190.88 106.89C185.473 93.2492 182.198 78.8574 181.17 64.2201Z" fill="#006FB9"/>
        <path d="M190 42.67C188.96 28.0294 185.668 13.6369 180.24 0C191.21 11.3845 197.832 26.2612 198.949 42.0315C200.065 57.8018 195.606 73.4632 186.35 86.28C189.801 72.0174 191.033 57.3079 190 42.67Z" fill="#006FB9"/>
        <path d="M207.25 84.57C206.665 76.4253 207.34 68.2392 209.25 60.3C204.101 67.4302 201.62 76.142 202.24 84.9148C202.859 93.6877 206.54 101.964 212.64 108.3C209.638 100.713 207.82 92.7096 207.25 84.57Z" fill="#006FB9"/>
        <path d="M212.14 72.5801C211.564 64.4363 209.739 56.4295 206.73 48.8401C212.833 55.1736 216.517 63.4499 217.138 72.2233C217.76 80.9967 215.279 89.7095 210.13 96.8401C212.039 88.9041 212.717 80.722 212.14 72.5801Z" fill="#006FB9"/>
        <path d="M161.29 84.57C161.87 76.4254 161.195 68.24 159.29 60.3C164.441 67.4299 166.923 76.1432 166.301 84.9171C165.68 93.691 161.995 101.968 155.89 108.3C158.9 100.715 160.722 92.7108 161.29 84.57Z" fill="#006FB9"/>
        <path d="M156.41 72.5801C156.978 64.4361 158.8 56.4285 161.81 48.8401C155.707 55.1736 152.023 63.4499 151.402 72.2233C150.78 80.9967 153.261 89.7095 158.41 96.8401C156.505 88.9036 155.83 80.7215 156.41 72.5801Z" fill="#006FB9"/>
        <path d="M7.33005 195.15L9.07005 195.37C8.93902 196.452 8.42036 197.45 7.61005 198.18C6.8082 198.86 5.78112 199.217 4.73005 199.18C4.09297 199.208 3.45729 199.099 2.86569 198.861C2.27408 198.623 1.74025 198.261 1.30005 197.8C0.36901 196.683 -0.0964955 195.251 4.81885e-05 193.8C-0.0200145 192.788 0.170697 191.784 0.560048 190.85C0.905845 190.062 1.50388 189.411 2.26005 189C3.02008 188.573 3.87845 188.353 4.75005 188.36C5.7449 188.319 6.72342 188.623 7.52005 189.22C8.26507 189.835 8.75652 190.704 8.90005 191.66L7.18005 191.92C7.06944 191.315 6.76806 190.761 6.32005 190.34C5.90035 189.988 5.36761 189.8 4.82005 189.81C4.4062 189.801 3.99578 189.887 3.61984 190.06C3.24389 190.233 2.91227 190.49 2.65005 190.81C2.02178 191.678 1.72392 192.742 1.81005 193.81C1.72886 194.873 2.01477 195.932 2.62005 196.81C2.86841 197.128 3.18749 197.384 3.55199 197.558C3.91649 197.731 4.3164 197.818 4.72005 197.81C5.35636 197.831 5.97612 197.605 6.45005 197.18C6.98152 196.633 7.29455 195.911 7.33005 195.15Z" fill="#fff"/>
        <path d="M15.85 188.55H24.31V190H21V199H19.2V190H15.85V188.55Z" fill="#fff"/>
        <path d="M32.22 203V188.6H33.83V189.95C34.1657 189.465 34.6024 189.059 35.11 188.76C35.6437 188.483 36.2388 188.345 36.84 188.36C37.6787 188.343 38.5024 188.584 39.2 189.05C39.8958 189.528 40.4322 190.204 40.74 190.99C41.0915 191.86 41.2682 192.791 41.26 193.73C41.2711 194.717 41.0735 195.695 40.68 196.6C40.3439 197.421 39.7646 198.118 39.02 198.6C38.3347 199.043 37.5361 199.279 36.72 199.28C36.1705 199.292 35.627 199.164 35.14 198.91C34.692 198.681 34.2969 198.361 33.98 197.97V203H32.22ZM33.82 193.86C33.7287 194.924 34.0155 195.986 34.63 196.86C34.8623 197.171 35.1641 197.423 35.5114 197.597C35.8587 197.771 36.2417 197.861 36.63 197.86C37.0175 197.857 37.3993 197.765 37.7459 197.592C38.0926 197.419 38.395 197.168 38.63 196.86C39.1697 195.94 39.4542 194.892 39.4542 193.825C39.4542 192.758 39.1697 191.71 38.63 190.79C38.3976 190.479 38.0958 190.226 37.7485 190.053C37.4013 189.879 37.0182 189.789 36.63 189.79C36.2385 189.8 35.8546 189.9 35.5079 190.082C35.1612 190.264 34.8608 190.524 34.63 190.84C34.0378 191.713 33.7528 192.757 33.82 193.81V193.86Z" fill="#fff"/>
        <path d="M49 193.75C48.9375 192.962 49.0494 192.17 49.3276 191.43C49.6059 190.691 50.0437 190.021 50.61 189.47C51.5201 188.694 52.6844 188.281 53.88 188.31C54.531 188.287 55.1797 188.401 55.7841 188.644C56.3886 188.887 56.9356 189.253 57.39 189.72C57.8614 190.245 58.2242 190.858 58.4576 191.524C58.691 192.19 58.7904 192.896 58.75 193.6C58.8022 194.689 58.5966 195.775 58.15 196.77C57.7596 197.529 57.1498 198.153 56.4 198.56C55.6271 198.981 54.7599 199.197 53.88 199.19C53.2263 199.218 52.5741 199.107 51.9659 198.866C51.3577 198.625 50.8071 198.258 50.35 197.79C49.3844 196.674 48.8992 195.222 49 193.75ZM50.81 193.75C50.7317 194.823 51.0443 195.889 51.69 196.75C51.9631 197.062 52.2998 197.312 52.6775 197.484C53.0552 197.655 53.4652 197.744 53.88 197.744C54.2948 197.744 54.7048 197.655 55.0825 197.484C55.4602 197.312 55.7969 197.062 56.07 196.75C56.7073 195.885 57.0157 194.822 56.94 193.75C57.0177 192.698 56.7043 191.655 56.06 190.82C55.7934 190.502 55.4595 190.248 55.0825 190.075C54.7055 189.902 54.2948 189.815 53.88 189.82C53.4638 189.815 53.0516 189.902 52.6729 190.075C52.2943 190.247 51.9586 190.502 51.69 190.82C51.0402 191.654 50.7103 192.694 50.76 193.75H50.81Z" fill="#fff"/>
        <path d="M67 188.55H68.76V196.49L73.65 188.55H75.55V199H73.79V191.11L68.9 199H67V188.55Z" fill="#fff"/>
        <path d="M83.48 188.55H91.94V190H88.59V199H86.83V190H83.48V188.55Z" fill="#fff"/>
        <path d="M106.75 195.61L108.58 195.83C108.342 196.814 107.778 197.688 106.98 198.31C105.976 198.963 104.785 199.266 103.592 199.172C102.398 199.078 101.269 198.592 100.38 197.79C99.4147 196.708 98.9184 195.288 99 193.84C98.9079 192.357 99.3914 190.895 100.35 189.76C100.798 189.282 101.343 188.906 101.948 188.656C102.554 188.406 103.205 188.288 103.86 188.31C104.498 188.29 105.132 188.407 105.721 188.654C106.309 188.901 106.837 189.271 107.27 189.74C108.211 190.852 108.684 192.286 108.59 193.74V194.22H100.82C100.826 195.185 101.181 196.116 101.82 196.84C102.098 197.137 102.437 197.372 102.812 197.529C103.188 197.686 103.593 197.761 104 197.75C104.594 197.767 105.178 197.587 105.66 197.24C106.18 196.82 106.56 196.251 106.75 195.61ZM101 192.75H106.81C106.794 192.033 106.564 191.336 106.15 190.75C105.885 190.428 105.55 190.171 105.17 189.998C104.791 189.824 104.377 189.74 103.96 189.75C103.589 189.748 103.221 189.819 102.878 189.96C102.535 190.101 102.223 190.308 101.96 190.57C101.374 191.148 101.031 191.928 101 192.75Z" fill="#fff"/>
        <path d="M117.21 188.55H125.41V199H123.65V190H119V195.19C119.024 195.989 118.984 196.788 118.88 197.58C118.788 197.98 118.558 198.334 118.23 198.58C117.784 198.893 117.244 199.045 116.7 199.01C116.29 199.01 115.82 199.01 115.28 198.93V197.46H116C116.265 197.473 116.529 197.436 116.78 197.35C116.93 197.277 117.045 197.148 117.1 196.99C117.17 196.46 117.193 195.924 117.17 195.39L117.21 188.55Z" fill="#fff"/>
        <path d="M134.26 188.55H136V192.62H138.24C139.42 192.548 140.593 192.841 141.6 193.46C141.977 193.72 142.283 194.07 142.489 194.479C142.695 194.888 142.795 195.342 142.78 195.8C142.783 196.222 142.695 196.639 142.523 197.024C142.35 197.409 142.097 197.752 141.78 198.03C140.885 198.727 139.76 199.059 138.63 198.96H134.22L134.26 188.55ZM136.02 197.55H137.87C138.689 197.608 139.51 197.464 140.26 197.13C140.489 197.007 140.678 196.821 140.806 196.595C140.933 196.368 140.994 196.11 140.98 195.85C140.978 195.625 140.93 195.402 140.839 195.195C140.747 194.989 140.615 194.804 140.45 194.65C139.758 194.2 138.928 194.012 138.11 194.12H136L136.02 197.55Z" fill="#fff"/>
        <path d="M151 188.55H152.76V192.88H157.65V188.55H159.42V199H157.65V194.38H152.76V199H151V188.55Z" fill="#fff"/>
        <path d="M175.07 197.68C174.511 198.174 173.872 198.57 173.18 198.85C172.56 199.082 171.902 199.197 171.24 199.19C170.287 199.257 169.343 198.96 168.6 198.36C168.137 197.91 167.831 197.322 167.728 196.685C167.625 196.047 167.731 195.393 168.03 194.82C168.247 194.418 168.56 194.074 168.94 193.82C169.331 193.563 169.76 193.368 170.21 193.24C170.727 193.118 171.251 193.031 171.78 192.98C172.845 192.884 173.897 192.68 174.92 192.37C174.92 192.13 174.92 191.98 174.92 191.91C174.946 191.636 174.915 191.359 174.829 191.098C174.743 190.836 174.604 190.595 174.42 190.39C173.849 189.952 173.138 189.739 172.42 189.79C171.779 189.742 171.139 189.896 170.59 190.23C170.129 190.628 169.819 191.171 169.71 191.77L167.98 191.54C168.099 190.891 168.366 190.279 168.76 189.75C169.178 189.284 169.713 188.938 170.31 188.75C171.073 188.493 171.875 188.368 172.68 188.38C173.417 188.358 174.151 188.466 174.85 188.7C175.318 188.853 175.739 189.125 176.07 189.49C176.347 189.84 176.536 190.252 176.62 190.69C176.696 191.23 176.726 191.775 176.71 192.32V194.67C176.68 195.708 176.717 196.747 176.82 197.78C176.893 198.22 177.046 198.644 177.27 199.03H175.42C175.222 198.605 175.103 198.148 175.07 197.68ZM174.92 193.68C173.989 194.014 173.023 194.239 172.04 194.35C171.514 194.403 170.997 194.521 170.5 194.7C170.217 194.819 169.976 195.021 169.81 195.28C169.644 195.525 169.557 195.814 169.56 196.11C169.555 196.334 169.601 196.556 169.692 196.76C169.784 196.964 169.92 197.145 170.09 197.29C170.537 197.636 171.097 197.803 171.66 197.76C172.291 197.77 172.914 197.619 173.47 197.32C173.979 197.042 174.388 196.612 174.64 196.09C174.858 195.53 174.953 194.93 174.92 194.33V193.68Z" fill="#fff"/>
        <path d="M193.86 188.55V199H192.11V194.9H191.11C190.638 194.87 190.165 194.952 189.73 195.14C189.188 195.56 188.736 196.083 188.4 196.68L186.83 199H184.65L186.55 196.2C186.914 195.506 187.535 194.982 188.28 194.74C187.422 194.684 186.619 194.297 186.04 193.66C185.567 193.101 185.309 192.392 185.31 191.66C185.3 191.242 185.385 190.827 185.558 190.446C185.732 190.065 185.989 189.728 186.31 189.46C187.099 188.849 188.085 188.55 189.08 188.62L193.86 188.55ZM192.11 190H189.6C188.896 189.911 188.184 190.086 187.6 190.49C187.304 190.8 187.139 191.212 187.14 191.64C187.122 191.907 187.175 192.173 187.295 192.413C187.414 192.652 187.596 192.855 187.82 193C188.556 193.358 189.375 193.51 190.19 193.44H192.19L192.11 190Z" fill="#fff"/>
        <path d="M214.55 188.55H216.31V193.05C216.729 193.091 217.149 192.978 217.49 192.73C217.917 192.154 218.254 191.517 218.49 190.84C218.707 190.269 218.988 189.726 219.33 189.22C219.522 188.973 219.783 188.789 220.08 188.69C220.521 188.579 220.976 188.532 221.43 188.55H221.78V190H221.29C220.978 189.958 220.661 190.033 220.4 190.21C220.129 190.604 219.917 191.035 219.77 191.49C219.601 191.995 219.354 192.47 219.04 192.9C218.758 193.205 218.418 193.45 218.04 193.62C219.025 194.023 219.824 194.779 220.28 195.74L222.21 198.96H220.21L218.33 195.74C218.081 195.251 217.742 194.813 217.33 194.45C217.035 194.25 216.686 194.145 216.33 194.15V199H214.57L214.55 188.55Z" fill="#fff"/>
        <path d="M229.13 193.75C229.068 192.962 229.179 192.17 229.458 191.43C229.736 190.691 230.174 190.021 230.74 189.47C231.653 188.693 232.821 188.28 234.02 188.31C234.67 188.287 235.317 188.401 235.919 188.644C236.522 188.887 237.068 189.253 237.52 189.72C237.993 190.245 238.357 190.857 238.592 191.523C238.827 192.189 238.928 192.895 238.89 193.6C238.944 194.69 238.735 195.778 238.28 196.77C237.89 197.529 237.28 198.153 236.53 198.56C235.76 198.979 234.897 199.196 234.02 199.19C233.365 199.218 232.711 199.108 232.101 198.867C231.491 198.626 230.939 198.259 230.48 197.79C229.514 196.674 229.029 195.222 229.13 193.75ZM230.95 193.75C230.869 194.822 231.178 195.888 231.82 196.75C232.089 197.07 232.426 197.326 232.807 197.5C233.187 197.673 233.602 197.758 234.02 197.75C234.435 197.758 234.847 197.672 235.224 197.499C235.602 197.326 235.935 197.07 236.2 196.75C236.837 195.885 237.146 194.822 237.07 193.75C237.148 192.698 236.834 191.655 236.19 190.82C235.925 190.503 235.593 190.249 235.217 190.076C234.842 189.903 234.433 189.816 234.02 189.82C233.602 189.814 233.188 189.9 232.808 190.073C232.428 190.246 232.09 190.501 231.82 190.82C231.209 191.669 230.919 192.707 231 193.75H230.95Z" fill="#fff"/>
        <path d="M247.23 188.55H250L252.74 196.88L255.74 188.55H258.28V199H256.52V190.62L253.44 199H251.86L249 190.18V199H247.28L247.23 188.55Z" fill="#fff"/>
        <path d="M267.21 188.55H275.43V199H273.66V190H269V199H267.23L267.21 188.55Z" fill="#fff"/>
        <path d="M291.09 197.68C290.531 198.174 289.892 198.57 289.2 198.85C288.576 199.082 287.915 199.198 287.25 199.19C286.3 199.256 285.36 198.96 284.62 198.36C284.32 198.092 284.082 197.761 283.923 197.392C283.764 197.022 283.688 196.622 283.7 196.22C283.692 195.732 283.809 195.25 284.04 194.82C284.264 194.419 284.579 194.077 284.96 193.82C285.351 193.563 285.78 193.368 286.23 193.24C286.744 193.118 287.265 193.031 287.79 192.98C288.858 192.885 289.914 192.681 290.94 192.37C290.94 192.13 290.94 191.98 290.94 191.91C290.966 191.636 290.935 191.359 290.849 191.098C290.763 190.836 290.623 190.595 290.44 190.39C289.869 189.952 289.158 189.738 288.44 189.79C287.799 189.742 287.159 189.896 286.61 190.23C286.149 190.627 285.838 191.171 285.73 191.77L284 191.54C284.114 190.89 284.382 190.276 284.78 189.75C285.196 189.282 285.732 188.936 286.33 188.75C287.09 188.494 287.888 188.369 288.69 188.38C289.427 188.356 290.161 188.465 290.86 188.7C291.331 188.853 291.755 189.125 292.09 189.49C292.368 189.838 292.553 190.251 292.63 190.69C292.706 191.23 292.736 191.775 292.72 192.32V194.67C292.691 195.708 292.731 196.747 292.84 197.78C292.914 198.219 293.063 198.641 293.28 199.03H291.44C291.241 198.605 291.123 198.148 291.09 197.68ZM290.94 193.68C290.009 194.014 289.043 194.239 288.06 194.35C287.534 194.403 287.017 194.521 286.52 194.7C286.235 194.822 285.992 195.023 285.82 195.28C285.625 195.594 285.547 195.967 285.6 196.333C285.653 196.699 285.834 197.034 286.11 197.28C286.557 197.626 287.116 197.793 287.68 197.75C288.311 197.759 288.934 197.607 289.49 197.31C289.999 197.032 290.408 196.602 290.66 196.08C290.878 195.52 290.973 194.92 290.94 194.32V193.68Z" fill="#fff"/>
        <path d="M301.69 188.55H303.46V192.88H308.35V188.55H310.11V199H308.35V194.38H303.46V199H301.69V188.55Z" fill="#fff"/>
        <path d="M319 188.55H320.77V196.49L325.66 188.55H327.56V199H325.79V191.11L320.89 199H319V188.55Z" fill="#fff"/>
        <path d="M344.63 188.55V199H342.87V194.9H341.87C341.394 194.873 340.919 194.955 340.48 195.14C339.944 195.565 339.493 196.088 339.15 196.68L337.6 199H335.41L337.31 196.2C337.681 195.508 338.304 194.985 339.05 194.74C338.191 194.686 337.387 194.298 336.81 193.66C336.337 193.101 336.079 192.392 336.08 191.66C336.066 191.246 336.143 190.834 336.308 190.453C336.472 190.073 336.719 189.734 337.03 189.46C337.82 188.851 338.805 188.552 339.8 188.62L344.63 188.55ZM342.87 190H340.36C339.656 189.91 338.943 190.085 338.36 190.49C338.06 190.797 337.895 191.211 337.9 191.64C337.88 191.906 337.931 192.172 338.049 192.412C338.167 192.651 338.347 192.854 338.57 193C339.309 193.358 340.132 193.51 340.95 193.44H342.9L342.87 190Z" fill="#fff"/>
    </symbol>

    <symbol id="logo-full-white" viewBox="0 0 345 203">
       
        <path d="M10.43 116C13.99 116 16.64 117 18.37 118.83C20.1 120.66 20.98 123.49 20.98 127.13V133C20.98 136.647 20.11 139.413 18.37 141.3C16.63 143.187 13.9833 144.133 10.43 144.14H7.08V161H0V116H10.43ZM7.08 122.44V137.69H10.43C10.8969 137.72 11.3651 137.656 11.8067 137.502C12.2483 137.347 12.6541 137.105 13 136.79C13.7116 135.827 14.033 134.63 13.9 133.44V126.68C14.0315 125.493 13.71 124.3 13 123.34C12.6541 123.025 12.2483 122.783 11.8067 122.628C11.3651 122.474 10.8969 122.41 10.43 122.44H7.08Z" fill="#fff"/>
        <path d="M31.28 135H41V141.43H31.28V154.63H43.5099V161H24.2V116H43.5099V122.44H31.28V135Z" fill="#fff"/>
        <path d="M68.1501 144.23V150.23C68.1501 153.88 67.2701 156.67 65.4801 158.63C63.6901 160.59 61.07 161.56 57.6 161.56C54.13 161.56 51.5001 160.56 49.7201 158.63C47.9401 156.7 47.05 153.88 47.05 150.23V126.79C47.05 123.14 47.9401 120.35 49.7201 118.39C51.5001 116.43 54.13 115.46 57.6 115.46C61.07 115.46 63.7001 116.46 65.4801 118.39C67.2601 120.32 68.1501 123.14 68.1501 126.79V131.17H61.46V126.34C61.5885 125.107 61.2296 123.872 60.46 122.9C59.7204 122.254 58.7719 121.899 57.7901 121.899C56.8082 121.899 55.8597 122.254 55.12 122.9C54.3543 123.874 53.9959 125.107 54.12 126.34V150.67C53.9921 151.894 54.3514 153.119 55.12 154.08C55.8687 154.707 56.8138 155.05 57.7901 155.05C58.7663 155.05 59.7114 154.707 60.46 154.08C60.8431 153.605 61.1286 153.06 61.3002 152.475C61.4718 151.89 61.5261 151.276 61.46 150.67V144.23H68.1501Z" fill="#fff"/>
        <path d="M74.59 154.6C74.9953 154.641 75.4025 154.661 75.81 154.66H77C77.5293 154.665 78.057 154.601 78.57 154.47C79.0523 154.344 79.4956 154.1 79.86 153.76C80.2613 153.346 80.5504 152.837 80.7 152.28C80.9074 151.48 81.0017 150.656 80.98 149.83L70.73 116H77.81L85.59 142.39L92 116H99.08L89.81 149.21C89.2273 151.658 88.3963 154.041 87.33 156.32C86.7191 157.687 85.8062 158.897 84.66 159.86C83.7958 160.538 82.7539 160.951 81.66 161.05C80.56 161.14 79.35 161.18 78.02 161.18H76.26C75.7009 161.178 75.1427 161.135 74.59 161.05V154.6Z" fill="#fff"/>
        <path d="M112.75 116C116.31 116 118.96 117 120.75 118.83C122.54 120.66 123.36 123.49 123.36 127.13V133C123.36 136.647 122.49 139.413 120.75 141.3C119.01 143.187 116.343 144.133 112.75 144.14H109.41V161H102.33V116H112.75ZM109.41 122.44V137.69H112.75C113.218 137.72 113.688 137.656 114.131 137.501C114.574 137.347 114.982 137.105 115.33 136.79C116.042 135.827 116.363 134.63 116.23 133.44V126.68C116.361 125.493 116.04 124.3 115.33 123.34C114.982 123.025 114.574 122.783 114.131 122.629C113.688 122.474 113.218 122.41 112.75 122.44H109.41Z" fill="#fff"/>
        <path d="M147 144.23V150.23C147 153.88 146.11 156.67 144.33 158.63C142.55 160.59 139.92 161.56 136.45 161.56C132.98 161.56 130.34 160.56 128.56 158.63C126.78 156.7 125.89 153.88 125.89 150.23V126.79C125.89 123.14 126.78 120.35 128.56 118.39C130.34 116.43 132.97 115.46 136.45 115.46C139.93 115.46 142.55 116.46 144.33 118.39C146.11 120.32 147 123.14 147 126.79V131.17H140.3V126.34C140.424 125.107 140.066 123.874 139.3 122.9C138.56 122.254 137.612 121.899 136.63 121.899C135.648 121.899 134.7 122.254 133.96 122.9C133.19 123.872 132.832 125.107 132.96 126.34V150.67C132.894 151.276 132.948 151.89 133.12 152.475C133.291 153.06 133.577 153.605 133.96 154.08C134.709 154.707 135.654 155.05 136.63 155.05C137.606 155.05 138.551 154.707 139.3 154.08C140.069 153.119 140.428 151.894 140.3 150.67V144.23H147Z" fill="#fff"/>
        <path d="M158.57 161H151.49V116H170.22V122.44H158.57V161Z" fill="#fff"/>
        <path d="M196.29 161H189.14L187.92 152.83H179.23L178 161H171.5L178.71 116H189.07L196.29 161ZM180.13 146.71H187L183.54 124L180.13 146.71Z" fill="#fff"/>
        <path d="M212.89 127.05C212.89 125.05 212.56 123.67 211.89 122.96C211.545 122.604 211.129 122.326 210.669 122.143C210.209 121.961 209.715 121.878 209.22 121.9C208.73 121.875 208.241 121.952 207.782 122.124C207.322 122.296 206.903 122.56 206.55 122.9C205.784 123.874 205.426 125.107 205.55 126.34V131.17H198.86V126.79C198.86 123.14 199.75 120.35 201.53 118.39C203.31 116.43 205.94 115.46 209.41 115.46C212.88 115.46 215.52 116.46 217.3 118.39C219.08 120.32 219.97 123.14 219.97 126.79V128C219.97 132.807 218.303 135.897 214.97 137.27C216.654 137.929 218.024 139.206 218.8 140.84C219.602 142.697 219.987 144.708 219.93 146.73V150.27C219.93 153.92 219.04 156.71 217.26 158.67C215.48 160.63 212.85 161.6 209.37 161.6C205.89 161.6 203.27 160.6 201.49 158.67C199.71 156.74 198.82 153.92 198.82 150.27V144.61H205.51V150.72C205.386 151.953 205.744 153.186 206.51 154.16C206.863 154.5 207.282 154.764 207.742 154.936C208.201 155.108 208.69 155.184 209.18 155.16C209.67 155.189 210.161 155.115 210.621 154.942C211.081 154.77 211.499 154.504 211.85 154.16C212.52 153.47 212.85 152.16 212.85 150.11V146.57C212.85 144.46 212.48 142.98 211.75 142.13C211.293 141.665 210.738 141.308 210.126 141.085C209.513 140.862 208.859 140.778 208.21 140.84H207.12V134.4H208.6C209.73 134.478 210.846 134.12 211.72 133.4C212.47 132.72 212.85 131.47 212.85 129.67L212.89 127.05Z" fill="#fff"/>
        <path d="M244.94 144.23V150.23C244.94 153.88 244.05 156.67 242.27 158.63C240.49 160.59 237.86 161.56 234.38 161.56C230.9 161.56 228.28 160.56 226.5 158.63C224.72 156.7 223.83 153.88 223.83 150.23V126.79C223.83 123.14 224.72 120.35 226.5 118.39C228.28 116.43 230.91 115.46 234.38 115.46C237.85 115.46 240.49 116.46 242.27 118.39C244.05 120.32 244.94 123.14 244.94 126.79V131.17H238.24V126.34C238.364 125.107 238.006 123.874 237.24 122.9C236.5 122.254 235.552 121.899 234.57 121.899C233.588 121.899 232.64 122.254 231.9 122.9C231.13 123.872 230.772 125.107 230.9 126.34V150.67C230.834 151.276 230.888 151.89 231.06 152.475C231.231 153.06 231.517 153.605 231.9 154.08C232.649 154.707 233.594 155.05 234.57 155.05C235.546 155.05 236.491 154.707 237.24 154.08C238.009 153.119 238.368 151.894 238.24 150.67V144.23H244.94Z" fill="#fff"/>
        <path d="M247.51 116H269.39V122.44H262V161H254.92V122.42H247.52L247.51 116Z" fill="#fff"/>
        <path d="M283 116C286.57 116 289.22 117 291 118.83C292.78 120.66 293.61 123.49 293.61 127.13V133C293.61 136.647 292.74 139.413 291 141.3C289.26 143.187 286.593 144.133 283 144.14H279.66V161H272.58V116H283ZM279.66 122.44V137.69H283C283.468 137.721 283.938 137.658 284.382 137.503C284.825 137.348 285.233 137.106 285.58 136.79C286.292 135.827 286.613 134.63 286.48 133.44V126.68C286.611 125.493 286.29 124.3 285.58 123.34C285.233 123.024 284.825 122.782 284.382 122.627C283.938 122.472 283.468 122.409 283 122.44H279.66Z" fill="#fff"/>
        <path d="M296.16 126.79C296.16 123.14 297.09 120.35 298.93 118.39C300.77 116.43 303.44 115.46 306.93 115.46C310.42 115.46 313.07 116.46 314.93 118.39C316.79 120.32 317.7 123.14 317.7 126.79V150.22C317.7 153.87 316.78 156.66 314.93 158.62C313.08 160.58 310.43 161.55 306.93 161.55C303.43 161.55 300.8 160.55 298.93 158.62C297.06 156.69 296.16 153.87 296.16 150.22V126.79ZM303.24 150.67C303.116 151.903 303.474 153.136 304.24 154.11C304.98 154.756 305.928 155.111 306.91 155.111C307.892 155.111 308.84 154.756 309.58 154.11C310.35 153.138 310.708 151.903 310.58 150.67V126.34C310.708 125.107 310.35 123.872 309.58 122.9C308.84 122.254 307.892 121.899 306.91 121.899C305.928 121.899 304.98 122.254 304.24 122.9C303.474 123.874 303.116 125.107 303.24 126.34V150.67Z" fill="#fff"/>
        <path d="M329.44 161H322.17V116H328.47V143L335.74 116H344.63V161H338.25V128.4L329.44 161ZM341.28 108.16V113.44H325.7V108.16H341.28Z" fill="#fff"/>
        <path d="M344.63 172H0V175.2H344.63V172Z" fill="#fff"/>
        <path d="M181.17 64.2201C180.13 49.581 181.347 34.869 184.78 20.6001C175.518 33.4159 171.054 49.0792 172.169 64.8522C173.284 80.6252 179.907 95.5047 190.88 106.89C185.473 93.2492 182.198 78.8574 181.17 64.2201Z" fill="#fff"/>
        <path d="M190 42.67C188.96 28.0294 185.668 13.6369 180.24 0C191.21 11.3845 197.832 26.2612 198.949 42.0315C200.065 57.8018 195.606 73.4632 186.35 86.28C189.801 72.0174 191.033 57.3079 190 42.67Z" fill="#fff"/>
        <path d="M207.25 84.57C206.665 76.4253 207.34 68.2392 209.25 60.3C204.101 67.4302 201.62 76.142 202.24 84.9148C202.859 93.6877 206.54 101.964 212.64 108.3C209.638 100.713 207.82 92.7096 207.25 84.57Z" fill="#fff"/>
        <path d="M212.14 72.5801C211.564 64.4363 209.739 56.4295 206.73 48.8401C212.833 55.1736 216.517 63.4499 217.138 72.2233C217.76 80.9967 215.279 89.7095 210.13 96.8401C212.039 88.9041 212.717 80.722 212.14 72.5801Z" fill="#fff"/>
        <path d="M161.29 84.57C161.87 76.4254 161.195 68.24 159.29 60.3C164.441 67.4299 166.923 76.1432 166.301 84.9171C165.68 93.691 161.995 101.968 155.89 108.3C158.9 100.715 160.722 92.7108 161.29 84.57Z" fill="#fff"/>
        <path d="M156.41 72.5801C156.978 64.4361 158.8 56.4285 161.81 48.8401C155.707 55.1736 152.023 63.4499 151.402 72.2233C150.78 80.9967 153.261 89.7095 158.41 96.8401C156.505 88.9036 155.83 80.7215 156.41 72.5801Z" fill="#fff"/>
        <path d="M7.33005 195.15L9.07005 195.37C8.93902 196.452 8.42036 197.45 7.61005 198.18C6.8082 198.86 5.78112 199.217 4.73005 199.18C4.09297 199.208 3.45729 199.099 2.86569 198.861C2.27408 198.623 1.74025 198.261 1.30005 197.8C0.36901 196.683 -0.0964955 195.251 4.81885e-05 193.8C-0.0200145 192.788 0.170697 191.784 0.560048 190.85C0.905845 190.062 1.50388 189.411 2.26005 189C3.02008 188.573 3.87845 188.353 4.75005 188.36C5.7449 188.319 6.72342 188.623 7.52005 189.22C8.26507 189.835 8.75652 190.704 8.90005 191.66L7.18005 191.92C7.06944 191.315 6.76806 190.761 6.32005 190.34C5.90035 189.988 5.36761 189.8 4.82005 189.81C4.4062 189.801 3.99578 189.887 3.61984 190.06C3.24389 190.233 2.91227 190.49 2.65005 190.81C2.02178 191.678 1.72392 192.742 1.81005 193.81C1.72886 194.873 2.01477 195.932 2.62005 196.81C2.86841 197.128 3.18749 197.384 3.55199 197.558C3.91649 197.731 4.3164 197.818 4.72005 197.81C5.35636 197.831 5.97612 197.605 6.45005 197.18C6.98152 196.633 7.29455 195.911 7.33005 195.15Z" fill="#fff"/>
        <path d="M15.85 188.55H24.31V190H21V199H19.2V190H15.85V188.55Z" fill="#fff"/>
        <path d="M32.22 203V188.6H33.83V189.95C34.1657 189.465 34.6024 189.059 35.11 188.76C35.6437 188.483 36.2388 188.345 36.84 188.36C37.6787 188.343 38.5024 188.584 39.2 189.05C39.8958 189.528 40.4322 190.204 40.74 190.99C41.0915 191.86 41.2682 192.791 41.26 193.73C41.2711 194.717 41.0735 195.695 40.68 196.6C40.3439 197.421 39.7646 198.118 39.02 198.6C38.3347 199.043 37.5361 199.279 36.72 199.28C36.1705 199.292 35.627 199.164 35.14 198.91C34.692 198.681 34.2969 198.361 33.98 197.97V203H32.22ZM33.82 193.86C33.7287 194.924 34.0155 195.986 34.63 196.86C34.8623 197.171 35.1641 197.423 35.5114 197.597C35.8587 197.771 36.2417 197.861 36.63 197.86C37.0175 197.857 37.3993 197.765 37.7459 197.592C38.0926 197.419 38.395 197.168 38.63 196.86C39.1697 195.94 39.4542 194.892 39.4542 193.825C39.4542 192.758 39.1697 191.71 38.63 190.79C38.3976 190.479 38.0958 190.226 37.7485 190.053C37.4013 189.879 37.0182 189.789 36.63 189.79C36.2385 189.8 35.8546 189.9 35.5079 190.082C35.1612 190.264 34.8608 190.524 34.63 190.84C34.0378 191.713 33.7528 192.757 33.82 193.81V193.86Z" fill="#fff"/>
        <path d="M49 193.75C48.9375 192.962 49.0494 192.17 49.3276 191.43C49.6059 190.691 50.0437 190.021 50.61 189.47C51.5201 188.694 52.6844 188.281 53.88 188.31C54.531 188.287 55.1797 188.401 55.7841 188.644C56.3886 188.887 56.9356 189.253 57.39 189.72C57.8614 190.245 58.2242 190.858 58.4576 191.524C58.691 192.19 58.7904 192.896 58.75 193.6C58.8022 194.689 58.5966 195.775 58.15 196.77C57.7596 197.529 57.1498 198.153 56.4 198.56C55.6271 198.981 54.7599 199.197 53.88 199.19C53.2263 199.218 52.5741 199.107 51.9659 198.866C51.3577 198.625 50.8071 198.258 50.35 197.79C49.3844 196.674 48.8992 195.222 49 193.75ZM50.81 193.75C50.7317 194.823 51.0443 195.889 51.69 196.75C51.9631 197.062 52.2998 197.312 52.6775 197.484C53.0552 197.655 53.4652 197.744 53.88 197.744C54.2948 197.744 54.7048 197.655 55.0825 197.484C55.4602 197.312 55.7969 197.062 56.07 196.75C56.7073 195.885 57.0157 194.822 56.94 193.75C57.0177 192.698 56.7043 191.655 56.06 190.82C55.7934 190.502 55.4595 190.248 55.0825 190.075C54.7055 189.902 54.2948 189.815 53.88 189.82C53.4638 189.815 53.0516 189.902 52.6729 190.075C52.2943 190.247 51.9586 190.502 51.69 190.82C51.0402 191.654 50.7103 192.694 50.76 193.75H50.81Z" fill="#fff"/>
        <path d="M67 188.55H68.76V196.49L73.65 188.55H75.55V199H73.79V191.11L68.9 199H67V188.55Z" fill="#fff"/>
        <path d="M83.48 188.55H91.94V190H88.59V199H86.83V190H83.48V188.55Z" fill="#fff"/>
        <path d="M106.75 195.61L108.58 195.83C108.342 196.814 107.778 197.688 106.98 198.31C105.976 198.963 104.785 199.266 103.592 199.172C102.398 199.078 101.269 198.592 100.38 197.79C99.4147 196.708 98.9184 195.288 99 193.84C98.9079 192.357 99.3914 190.895 100.35 189.76C100.798 189.282 101.343 188.906 101.948 188.656C102.554 188.406 103.205 188.288 103.86 188.31C104.498 188.29 105.132 188.407 105.721 188.654C106.309 188.901 106.837 189.271 107.27 189.74C108.211 190.852 108.684 192.286 108.59 193.74V194.22H100.82C100.826 195.185 101.181 196.116 101.82 196.84C102.098 197.137 102.437 197.372 102.812 197.529C103.188 197.686 103.593 197.761 104 197.75C104.594 197.767 105.178 197.587 105.66 197.24C106.18 196.82 106.56 196.251 106.75 195.61ZM101 192.75H106.81C106.794 192.033 106.564 191.336 106.15 190.75C105.885 190.428 105.55 190.171 105.17 189.998C104.791 189.824 104.377 189.74 103.96 189.75C103.589 189.748 103.221 189.819 102.878 189.96C102.535 190.101 102.223 190.308 101.96 190.57C101.374 191.148 101.031 191.928 101 192.75Z" fill="#fff"/>
        <path d="M117.21 188.55H125.41V199H123.65V190H119V195.19C119.024 195.989 118.984 196.788 118.88 197.58C118.788 197.98 118.558 198.334 118.23 198.58C117.784 198.893 117.244 199.045 116.7 199.01C116.29 199.01 115.82 199.01 115.28 198.93V197.46H116C116.265 197.473 116.529 197.436 116.78 197.35C116.93 197.277 117.045 197.148 117.1 196.99C117.17 196.46 117.193 195.924 117.17 195.39L117.21 188.55Z" fill="#fff"/>
        <path d="M134.26 188.55H136V192.62H138.24C139.42 192.548 140.593 192.841 141.6 193.46C141.977 193.72 142.283 194.07 142.489 194.479C142.695 194.888 142.795 195.342 142.78 195.8C142.783 196.222 142.695 196.639 142.523 197.024C142.35 197.409 142.097 197.752 141.78 198.03C140.885 198.727 139.76 199.059 138.63 198.96H134.22L134.26 188.55ZM136.02 197.55H137.87C138.689 197.608 139.51 197.464 140.26 197.13C140.489 197.007 140.678 196.821 140.806 196.595C140.933 196.368 140.994 196.11 140.98 195.85C140.978 195.625 140.93 195.402 140.839 195.195C140.747 194.989 140.615 194.804 140.45 194.65C139.758 194.2 138.928 194.012 138.11 194.12H136L136.02 197.55Z" fill="#fff"/>
        <path d="M151 188.55H152.76V192.88H157.65V188.55H159.42V199H157.65V194.38H152.76V199H151V188.55Z" fill="#fff"/>
        <path d="M175.07 197.68C174.511 198.174 173.872 198.57 173.18 198.85C172.56 199.082 171.902 199.197 171.24 199.19C170.287 199.257 169.343 198.96 168.6 198.36C168.137 197.91 167.831 197.322 167.728 196.685C167.625 196.047 167.731 195.393 168.03 194.82C168.247 194.418 168.56 194.074 168.94 193.82C169.331 193.563 169.76 193.368 170.21 193.24C170.727 193.118 171.251 193.031 171.78 192.98C172.845 192.884 173.897 192.68 174.92 192.37C174.92 192.13 174.92 191.98 174.92 191.91C174.946 191.636 174.915 191.359 174.829 191.098C174.743 190.836 174.604 190.595 174.42 190.39C173.849 189.952 173.138 189.739 172.42 189.79C171.779 189.742 171.139 189.896 170.59 190.23C170.129 190.628 169.819 191.171 169.71 191.77L167.98 191.54C168.099 190.891 168.366 190.279 168.76 189.75C169.178 189.284 169.713 188.938 170.31 188.75C171.073 188.493 171.875 188.368 172.68 188.38C173.417 188.358 174.151 188.466 174.85 188.7C175.318 188.853 175.739 189.125 176.07 189.49C176.347 189.84 176.536 190.252 176.62 190.69C176.696 191.23 176.726 191.775 176.71 192.32V194.67C176.68 195.708 176.717 196.747 176.82 197.78C176.893 198.22 177.046 198.644 177.27 199.03H175.42C175.222 198.605 175.103 198.148 175.07 197.68ZM174.92 193.68C173.989 194.014 173.023 194.239 172.04 194.35C171.514 194.403 170.997 194.521 170.5 194.7C170.217 194.819 169.976 195.021 169.81 195.28C169.644 195.525 169.557 195.814 169.56 196.11C169.555 196.334 169.601 196.556 169.692 196.76C169.784 196.964 169.92 197.145 170.09 197.29C170.537 197.636 171.097 197.803 171.66 197.76C172.291 197.77 172.914 197.619 173.47 197.32C173.979 197.042 174.388 196.612 174.64 196.09C174.858 195.53 174.953 194.93 174.92 194.33V193.68Z" fill="#fff"/>
        <path d="M193.86 188.55V199H192.11V194.9H191.11C190.638 194.87 190.165 194.952 189.73 195.14C189.188 195.56 188.736 196.083 188.4 196.68L186.83 199H184.65L186.55 196.2C186.914 195.506 187.535 194.982 188.28 194.74C187.422 194.684 186.619 194.297 186.04 193.66C185.567 193.101 185.309 192.392 185.31 191.66C185.3 191.242 185.385 190.827 185.558 190.446C185.732 190.065 185.989 189.728 186.31 189.46C187.099 188.849 188.085 188.55 189.08 188.62L193.86 188.55ZM192.11 190H189.6C188.896 189.911 188.184 190.086 187.6 190.49C187.304 190.8 187.139 191.212 187.14 191.64C187.122 191.907 187.175 192.173 187.295 192.413C187.414 192.652 187.596 192.855 187.82 193C188.556 193.358 189.375 193.51 190.19 193.44H192.19L192.11 190Z" fill="#fff"/>
        <path d="M214.55 188.55H216.31V193.05C216.729 193.091 217.149 192.978 217.49 192.73C217.917 192.154 218.254 191.517 218.49 190.84C218.707 190.269 218.988 189.726 219.33 189.22C219.522 188.973 219.783 188.789 220.08 188.69C220.521 188.579 220.976 188.532 221.43 188.55H221.78V190H221.29C220.978 189.958 220.661 190.033 220.4 190.21C220.129 190.604 219.917 191.035 219.77 191.49C219.601 191.995 219.354 192.47 219.04 192.9C218.758 193.205 218.418 193.45 218.04 193.62C219.025 194.023 219.824 194.779 220.28 195.74L222.21 198.96H220.21L218.33 195.74C218.081 195.251 217.742 194.813 217.33 194.45C217.035 194.25 216.686 194.145 216.33 194.15V199H214.57L214.55 188.55Z" fill="#fff"/>
        <path d="M229.13 193.75C229.068 192.962 229.179 192.17 229.458 191.43C229.736 190.691 230.174 190.021 230.74 189.47C231.653 188.693 232.821 188.28 234.02 188.31C234.67 188.287 235.317 188.401 235.919 188.644C236.522 188.887 237.068 189.253 237.52 189.72C237.993 190.245 238.357 190.857 238.592 191.523C238.827 192.189 238.928 192.895 238.89 193.6C238.944 194.69 238.735 195.778 238.28 196.77C237.89 197.529 237.28 198.153 236.53 198.56C235.76 198.979 234.897 199.196 234.02 199.19C233.365 199.218 232.711 199.108 232.101 198.867C231.491 198.626 230.939 198.259 230.48 197.79C229.514 196.674 229.029 195.222 229.13 193.75ZM230.95 193.75C230.869 194.822 231.178 195.888 231.82 196.75C232.089 197.07 232.426 197.326 232.807 197.5C233.187 197.673 233.602 197.758 234.02 197.75C234.435 197.758 234.847 197.672 235.224 197.499C235.602 197.326 235.935 197.07 236.2 196.75C236.837 195.885 237.146 194.822 237.07 193.75C237.148 192.698 236.834 191.655 236.19 190.82C235.925 190.503 235.593 190.249 235.217 190.076C234.842 189.903 234.433 189.816 234.02 189.82C233.602 189.814 233.188 189.9 232.808 190.073C232.428 190.246 232.09 190.501 231.82 190.82C231.209 191.669 230.919 192.707 231 193.75H230.95Z" fill="#fff"/>
        <path d="M247.23 188.55H250L252.74 196.88L255.74 188.55H258.28V199H256.52V190.62L253.44 199H251.86L249 190.18V199H247.28L247.23 188.55Z" fill="#fff"/>
        <path d="M267.21 188.55H275.43V199H273.66V190H269V199H267.23L267.21 188.55Z" fill="#fff"/>
        <path d="M291.09 197.68C290.531 198.174 289.892 198.57 289.2 198.85C288.576 199.082 287.915 199.198 287.25 199.19C286.3 199.256 285.36 198.96 284.62 198.36C284.32 198.092 284.082 197.761 283.923 197.392C283.764 197.022 283.688 196.622 283.7 196.22C283.692 195.732 283.809 195.25 284.04 194.82C284.264 194.419 284.579 194.077 284.96 193.82C285.351 193.563 285.78 193.368 286.23 193.24C286.744 193.118 287.265 193.031 287.79 192.98C288.858 192.885 289.914 192.681 290.94 192.37C290.94 192.13 290.94 191.98 290.94 191.91C290.966 191.636 290.935 191.359 290.849 191.098C290.763 190.836 290.623 190.595 290.44 190.39C289.869 189.952 289.158 189.738 288.44 189.79C287.799 189.742 287.159 189.896 286.61 190.23C286.149 190.627 285.838 191.171 285.73 191.77L284 191.54C284.114 190.89 284.382 190.276 284.78 189.75C285.196 189.282 285.732 188.936 286.33 188.75C287.09 188.494 287.888 188.369 288.69 188.38C289.427 188.356 290.161 188.465 290.86 188.7C291.331 188.853 291.755 189.125 292.09 189.49C292.368 189.838 292.553 190.251 292.63 190.69C292.706 191.23 292.736 191.775 292.72 192.32V194.67C292.691 195.708 292.731 196.747 292.84 197.78C292.914 198.219 293.063 198.641 293.28 199.03H291.44C291.241 198.605 291.123 198.148 291.09 197.68ZM290.94 193.68C290.009 194.014 289.043 194.239 288.06 194.35C287.534 194.403 287.017 194.521 286.52 194.7C286.235 194.822 285.992 195.023 285.82 195.28C285.625 195.594 285.547 195.967 285.6 196.333C285.653 196.699 285.834 197.034 286.11 197.28C286.557 197.626 287.116 197.793 287.68 197.75C288.311 197.759 288.934 197.607 289.49 197.31C289.999 197.032 290.408 196.602 290.66 196.08C290.878 195.52 290.973 194.92 290.94 194.32V193.68Z" fill="#fff"/>
        <path d="M301.69 188.55H303.46V192.88H308.35V188.55H310.11V199H308.35V194.38H303.46V199H301.69V188.55Z" fill="#fff"/>
        <path d="M319 188.55H320.77V196.49L325.66 188.55H327.56V199H325.79V191.11L320.89 199H319V188.55Z" fill="#fff"/>
        <path d="M344.63 188.55V199H342.87V194.9H341.87C341.394 194.873 340.919 194.955 340.48 195.14C339.944 195.565 339.493 196.088 339.15 196.68L337.6 199H335.41L337.31 196.2C337.681 195.508 338.304 194.985 339.05 194.74C338.191 194.686 337.387 194.298 336.81 193.66C336.337 193.101 336.079 192.392 336.08 191.66C336.066 191.246 336.143 190.834 336.308 190.453C336.472 190.073 336.719 189.734 337.03 189.46C337.82 188.851 338.805 188.552 339.8 188.62L344.63 188.55ZM342.87 190H340.36C339.656 189.91 338.943 190.085 338.36 190.49C338.06 190.797 337.895 191.211 337.9 191.64C337.88 191.906 337.931 192.172 338.049 192.412C338.167 192.651 338.347 192.854 338.57 193C339.309 193.358 340.132 193.51 340.95 193.44H342.9L342.87 190Z" fill="#fff"/>
    </symbol>

    <symbol id="vk" viewBox="0 0 22 12">
        <path d="M20.9101 10.84C20.8929 10.7905 20.8694 10.7434 20.8401 10.7C20.2673 9.79408 19.5629 8.97847 18.7501 8.27998C18.2901 7.82998 17.9901 7.52998 17.8701 7.37998C17.7623 7.26171 17.6902 7.11546 17.6619 6.95802C17.6336 6.80058 17.6503 6.63835 17.7101 6.48998C17.9928 5.97985 18.3279 5.50059 18.7101 5.05998L19.4201 4.12998C20.6801 2.44998 21.2301 1.37998 21.0601 0.909977L21.0001 0.799977C20.9087 0.705444 20.7896 0.642408 20.6601 0.619977C20.4297 0.567297 20.1904 0.567297 19.9601 0.619977H16.8001C16.7308 0.605695 16.6593 0.605695 16.5901 0.619977H16.4401H16.3901C16.3394 0.651188 16.2952 0.691942 16.2601 0.739977C16.215 0.796404 16.1811 0.860881 16.1601 0.929977C15.7931 1.79114 15.3619 2.62349 14.8701 3.41998C14.6001 3.86998 14.3601 4.26998 14.1301 4.59998C13.957 4.85609 13.7666 5.1 13.5601 5.32998C13.4308 5.46801 13.2903 5.59511 13.1401 5.70998C13.064 5.78204 12.9647 5.82459 12.8601 5.82998H12.6701C12.5682 5.76638 12.4853 5.67658 12.4301 5.56998C12.3573 5.43722 12.3131 5.29078 12.3001 5.13998C12.3001 4.96998 12.3001 4.81998 12.3001 4.68998C12.3001 4.55998 12.3001 4.39998 12.3001 4.16998C12.3001 3.93998 12.3001 3.78998 12.3001 3.70998C12.3001 3.42998 12.3001 3.12998 12.3001 2.80998C12.3001 2.48998 12.3001 2.22998 12.3001 2.03998C12.3001 1.84998 12.3001 1.64998 12.3001 1.43998C12.314 1.2736 12.314 1.10635 12.3001 0.939978C12.2706 0.819948 12.2305 0.702808 12.1801 0.589977C12.1356 0.47989 12.0589 0.385789 11.9601 0.319977C11.8444 0.252801 11.7198 0.202303 11.5901 0.169977C11.1029 0.0683572 10.6075 0.0114539 10.1101 -2.30279e-05C9.22757 -0.0707466 8.33958 0.0207637 7.49006 0.269977C7.33655 0.353108 7.19798 0.461258 7.08006 0.589977C6.94673 0.749977 6.92673 0.839977 7.02006 0.859977C7.38163 0.883947 7.71927 1.04917 7.96006 1.31998L8.02006 1.45998C8.09169 1.61937 8.14212 1.78747 8.17006 1.95998C8.23101 2.22246 8.26452 2.49057 8.27006 2.75998C8.31034 3.21576 8.31034 3.6742 8.27006 4.12998C8.27006 4.50998 8.20006 4.79998 8.17006 5.01998C8.15 5.19739 8.09924 5.36996 8.02006 5.52998C7.98279 5.61312 7.93934 5.69334 7.89006 5.76998V5.82998C7.79319 5.86184 7.69202 5.8787 7.59006 5.87998C7.45464 5.86753 7.32592 5.81535 7.22006 5.72998C7.04962 5.60995 6.89505 5.46883 6.76006 5.30998C6.56716 5.07185 6.39012 4.82131 6.23006 4.55998C5.99079 4.19147 5.7705 3.81097 5.57006 3.41998L5.39006 3.09998C5.29006 2.89998 5.13006 2.59998 4.94006 2.20998C4.75006 1.81998 4.59006 1.43998 4.44006 1.07998C4.39476 0.934939 4.3035 0.808578 4.18006 0.719977H4.12006C4.06948 0.679666 4.01183 0.649144 3.95006 0.629977C3.86958 0.597442 3.78573 0.573964 3.70006 0.559977H0.700059C0.586033 0.545754 0.47027 0.557232 0.361257 0.59357C0.252244 0.629907 0.152746 0.690184 0.0700589 0.769977V0.829977C0.0570507 0.889272 0.0570507 0.950682 0.0700589 1.00998C0.0735331 1.10934 0.0938203 1.20739 0.130059 1.29998C0.570059 2.29998 1.05006 3.29998 1.56006 4.29998C2.07006 5.29998 2.56006 6.02998 2.90006 6.60998C3.24006 7.18998 3.67006 7.74998 4.06006 8.26998C4.45006 8.78998 4.72006 9.11998 4.85006 9.26998C4.94075 9.38809 5.0411 9.49847 5.15006 9.59998L5.42006 9.85998C5.63401 10.0656 5.86482 10.2529 6.11006 10.42C6.47175 10.6827 6.84911 10.9232 7.24006 11.14C7.69257 11.3956 8.17672 11.5906 8.68006 11.72C9.20047 11.8651 9.74013 11.9292 10.2801 11.91H11.5401C11.7541 11.8943 11.9575 11.8102 12.1201 11.67V11.61C12.1596 11.5492 12.1868 11.4813 12.2001 11.41C12.2151 11.3105 12.2151 11.2094 12.2001 11.11C12.1905 10.8249 12.214 10.5397 12.2701 10.26C12.3085 10.0626 12.3724 9.87098 12.4601 9.68998C12.5211 9.57293 12.5986 9.46518 12.6901 9.36998C12.7427 9.3051 12.8072 9.25081 12.8801 9.20998H12.9701C13.0779 9.18671 13.1898 9.19002 13.2961 9.21964C13.4023 9.24925 13.4998 9.30428 13.5801 9.37998C13.8316 9.55778 14.0571 9.76982 14.2501 10.01C14.4601 10.27 14.7101 10.55 15.0001 10.86C15.2317 11.1195 15.4897 11.3541 15.7701 11.56L15.9901 11.69C16.1703 11.794 16.3614 11.8779 16.5601 11.94C16.7606 11.9872 16.9695 11.9872 17.1701 11.94H19.9701C20.1953 11.9514 20.4195 11.9031 20.6201 11.8C20.7455 11.7386 20.8422 11.6311 20.8901 11.5C20.9154 11.3779 20.9154 11.252 20.8901 11.13C20.9084 11.0345 20.9151 10.9371 20.9101 10.84Z"/>
    </symbol>

    <symbol id="fb" viewBox="0 0 11 20">
        <path d="M9.99 0.000101503H7.47C6.84559 -0.0363448 6.22064 0.0616709 5.63737 0.287525C5.05411 0.513378 4.52612 0.861807 4.08909 1.30926C3.65206 1.75672 3.31618 2.29278 3.10414 2.88121C2.8921 3.46964 2.80884 4.09673 2.86 4.7201V6.9001H0.39C0.338785 6.9001 0.288071 6.91019 0.240754 6.92979C0.193437 6.94939 0.150443 6.97812 0.114228 7.01433C0.0780134 7.05055 0.0492863 7.09354 0.0296869 7.14086C0.0100876 7.18817 0 7.23889 0 7.2901V10.5001C0 10.5513 0.0100876 10.602 0.0296869 10.6493C0.0492863 10.6967 0.0780134 10.7397 0.114228 10.7759C0.150443 10.8121 0.193437 10.8408 0.240754 10.8604C0.288071 10.88 0.338785 10.8901 0.39 10.8901H2.89V18.8901C2.88997 18.9945 2.93073 19.0947 3.0036 19.1695C3.07647 19.2442 3.17566 19.2875 3.28 19.2901H6.55C6.65434 19.2875 6.75353 19.2442 6.8264 19.1695C6.89927 19.0947 6.94003 18.9945 6.94 18.8901V10.8901H9.87C9.97264 10.8876 10.0704 10.8457 10.143 10.7731C10.2156 10.7005 10.2575 10.6027 10.26 10.5001V7.2901C10.2598 7.23777 10.2491 7.18601 10.2285 7.1379C10.2079 7.0898 10.1778 7.04633 10.14 7.0101C10.0676 6.93991 9.97084 6.90048 9.87 6.9001H6.94V5.0501C6.94 4.1601 7.15 3.7101 8.31 3.7101H9.99C10.0934 3.7101 10.1926 3.66901 10.2658 3.59587C10.3389 3.52273 10.38 3.42354 10.38 3.3201V0.390101C10.3775 0.287465 10.3356 0.189734 10.263 0.117137C10.1904 0.04454 10.0926 0.00263688 9.99 0.000101503Z"/>
    </symbol>

    <symbol id="ig" viewBox="0 0 20 20">
        <path d="M16.7999 9.80007C16.5372 8.00519 15.7024 6.34295 14.4197 5.06025C13.137 3.77756 11.4748 2.94283 9.67991 2.68007C8.86095 2.56009 8.02888 2.56009 7.20991 2.68007C5.1126 3.00509 3.21439 4.10745 1.89265 5.76799C0.570911 7.42853 -0.0775565 9.52564 0.0761619 11.6424C0.22988 13.7592 1.17453 15.7406 2.72231 17.1928C4.27008 18.6449 6.30764 19.4615 8.42991 19.4801C8.84841 19.4762 9.26612 19.4428 9.67991 19.3801C10.7774 19.2186 11.8324 18.8424 12.7843 18.2729C13.7363 17.7034 14.5667 16.9518 15.228 16.0611C15.8893 15.1704 16.3685 14.1581 16.6382 13.0821C16.9079 12.006 16.9629 10.8874 16.7999 9.79007V9.80007ZM9.23991 16.3801C8.5092 16.4799 7.76579 16.4289 7.05552 16.2304C6.34525 16.0319 5.68317 15.69 5.1101 15.2258C4.53704 14.7615 4.06514 14.1849 3.7235 13.5313C3.38186 12.8777 3.17772 12.161 3.12367 11.4255C3.06962 10.69 3.1668 9.95122 3.40922 9.2547C3.65164 8.55819 4.03417 7.91872 4.53322 7.37571C5.03226 6.8327 5.63724 6.39768 6.31086 6.09745C6.98448 5.79722 7.71246 5.63816 8.44991 5.63007C8.71438 5.63014 8.97847 5.6502 9.23991 5.69007C10.5257 5.875 11.7017 6.5172 12.5523 7.49892C13.4029 8.48064 13.8712 9.73609 13.8712 11.0351C13.8712 12.3341 13.4029 13.5895 12.5523 14.5712C11.7017 15.5529 10.5257 16.1951 9.23991 16.3801Z"/>
        <path d="M19.2299 0.659976C18.7922 0.335374 18.2519 0.179882 17.7085 0.22214C17.1652 0.264399 16.6554 0.501563 16.2731 0.889946C15.8909 1.27833 15.6618 1.79177 15.6281 2.3357C15.5944 2.87963 15.7584 3.41741 16.0899 3.84998C16.2976 4.06254 16.5457 4.23145 16.8196 4.34677C17.0935 4.46209 17.3877 4.52149 17.6849 4.52149C17.9821 4.52149 18.2763 4.46209 18.5502 4.34677C18.8241 4.23145 19.0722 4.06254 19.2799 3.84998C19.7001 3.42719 19.9372 2.85608 19.9399 2.25998C19.9245 1.65366 19.6691 1.07824 19.2299 0.659976Z"/>
    </symbol>

    <symbol id="square" viewBox="0 0 24 24">
        <path d="M3 9C3.26522 9 3.51957 8.89464 3.70711 8.70711C3.89464 8.51957 4 8.26522 4 8V4H8C8.26522 4 8.51957 3.89464 8.70711 3.70711C8.89464 3.51957 9 3.26522 9 3C9 2.73478 8.89464 2.48043 8.70711 2.29289C8.51957 2.10536 8.26522 2 8 2H4C3.46957 2 2.96086 2.21071 2.58579 2.58579C2.21071 2.96086 2 3.46957 2 4V8C2 8.26522 2.10536 8.51957 2.29289 8.70711C2.48043 8.89464 2.73478 9 3 9Z"/>
        <path d="M8 20H4V16C4 15.7348 3.89464 15.4804 3.70711 15.2929C3.51957 15.1054 3.26522 15 3 15C2.73478 15 2.48043 15.1054 2.29289 15.2929C2.10536 15.4804 2 15.7348 2 16V20C2 20.5304 2.21071 21.0391 2.58579 21.4142C2.96086 21.7893 3.46957 22 4 22H8C8.26522 22 8.51957 21.8946 8.70711 21.7071C8.89464 21.5196 9 21.2652 9 21C9 20.7348 8.89464 20.4804 8.70711 20.2929C8.51957 20.1054 8.26522 20 8 20Z"/>
        <path d="M21 15C20.7348 15 20.4804 15.1054 20.2929 15.2929C20.1054 15.4804 20 15.7348 20 16V20H16C15.7348 20 15.4804 20.1054 15.2929 20.2929C15.1054 20.4804 15 20.7348 15 21C15 21.2652 15.1054 21.5196 15.2929 21.7071C15.4804 21.8946 15.7348 22 16 22H20C20.5304 22 21.0391 21.7893 21.4142 21.4142C21.7893 21.0391 22 20.5304 22 20V16C22 15.7348 21.8946 15.4804 21.7071 15.2929C21.5196 15.1054 21.2652 15 21 15Z"/>
        <path d="M20 2H16C15.7348 2 15.4804 2.10536 15.2929 2.29289C15.1054 2.48043 15 2.73478 15 3C15 3.26522 15.1054 3.51957 15.2929 3.70711C15.4804 3.89464 15.7348 4 16 4H20V8C20 8.26522 20.1054 8.51957 20.2929 8.70711C20.4804 8.89464 20.7348 9 21 9C21.2652 9 21.5196 8.89464 21.7071 8.70711C21.8946 8.51957 22 8.26522 22 8V4C22 3.46957 21.7893 2.96086 21.4142 2.58579C21.0391 2.21071 20.5304 2 20 2Z"/>
        <path d="M16 13C16.2652 13 16.5196 12.8946 16.7071 12.7071C16.8946 12.5196 17 12.2652 17 12C17 11.7348 16.8946 11.4804 16.7071 11.2929C16.5196 11.1054 16.2652 11 16 11H13V8C13 7.73478 12.8946 7.48043 12.7071 7.29289C12.5196 7.10536 12.2652 7 12 7C11.7348 7 11.4804 7.10536 11.2929 7.29289C11.1054 7.48043 11 7.73478 11 8V11H8C7.73478 11 7.48043 11.1054 7.29289 11.2929C7.10536 11.4804 7 11.7348 7 12C7 12.2652 7.10536 12.5196 7.29289 12.7071C7.48043 12.8946 7.73478 13 8 13H11V16C11 16.2652 11.1054 16.5196 11.2929 16.7071C11.4804 16.8946 11.7348 17 12 17C12.2652 17 12.5196 16.8946 12.7071 16.7071C12.8946 16.5196 13 16.2652 13 16V13H16Z"/>
    </symbol>

    <symbol id="arrow" viewBox="0 0 20 14">
        <path d="M20 6.99994C19.9984 6.86926 19.9712 6.74016 19.92 6.61994C19.9061 6.58331 19.8858 6.54945 19.86 6.51994C19.8159 6.43961 19.7657 6.36272 19.71 6.28994L14.71 1.28994C14.6168 1.1967 14.5061 1.12274 14.3842 1.07228C14.2624 1.02182 14.1319 0.99585 14 0.99585C13.7337 0.99585 13.4783 1.10164 13.29 1.28994C13.1968 1.38318 13.1228 1.49387 13.0723 1.61569C13.0219 1.73751 12.9959 1.86808 12.9959 1.99994C12.9959 2.26624 13.1017 2.52164 13.29 2.70994L16.59 5.99994H1C0.734784 5.99994 0.48043 6.1053 0.292893 6.29283C0.105357 6.48037 0 6.73472 0 6.99994C0 7.26516 0.105357 7.51951 0.292893 7.70705C0.48043 7.89458 0.734784 7.99994 1 7.99994H16.58L13.29 11.2899C13.1963 11.3829 13.1219 11.4935 13.0711 11.6154C13.0203 11.7372 12.9942 11.8679 12.9942 11.9999C12.9942 12.132 13.0203 12.2627 13.0711 12.3845C13.1219 12.5064 13.1963 12.617 13.29 12.7099C13.383 12.8037 13.4936 12.8781 13.6154 12.9288C13.7373 12.9796 13.868 13.0057 14 13.0057C14.132 13.0057 14.2627 12.9796 14.3846 12.9288C14.5064 12.8781 14.617 12.8037 14.71 12.7099L19.71 7.70994C19.8094 7.61373 19.8877 7.49796 19.94 7.36994C19.9751 7.28399 19.9954 7.19269 20 7.09994V6.99994Z"/>
    </symbol>


    <symbol id="mail" viewBox="0 0 24 24">
        <path d="M18.45 3.5H5.54995C4.57197 3.53905 3.64931 3.964 2.98396 4.68183C2.31861 5.39966 1.96478 6.35187 1.99995 7.33V16.67C1.96478 17.6481 2.31861 18.6003 2.98396 19.3182C3.64931 20.036 4.57197 20.461 5.54995 20.5H18.45C19.4279 20.461 20.3506 20.036 21.0159 19.3182C21.6813 18.6003 22.0351 17.6481 22 16.67V7.33C22.0351 6.35187 21.6813 5.39966 21.0159 4.68183C20.3506 3.964 19.4279 3.53905 18.45 3.5ZM5.54995 5.5H18.45C18.8525 5.5259 19.2319 5.69752 19.5172 5.98278C19.8024 6.26804 19.9741 6.64741 20 7.05L12 13.7L3.99995 7.05C4.02792 6.64814 4.20021 6.26994 4.48505 5.9851C4.76989 5.70026 5.1481 5.52797 5.54995 5.5ZM18.45 18.5H5.54995C5.10319 18.4593 4.69032 18.2446 4.40037 17.9023C4.11042 17.5599 3.96662 17.1174 3.99995 16.67V9.67L10.82 15.35C11.1501 15.6285 11.5681 15.7813 12 15.7813C12.4318 15.7813 12.8498 15.6285 13.18 15.35L20 9.64V16.64C20.0206 16.864 19.9968 17.0898 19.9301 17.3045C19.8633 17.5193 19.7548 17.7188 19.6108 17.8916C19.4668 18.0643 19.2902 18.207 19.091 18.3114C18.8918 18.4158 18.674 18.4799 18.45 18.5Z"/>
    </symbol>

    <symbol id="phone" viewBox="0 0 24 24">
        <path d="M20.6701 11.1301H20.5301C20.2987 11.0909 20.0904 10.9665 19.946 10.7814C19.8017 10.5964 19.7318 10.3641 19.7501 10.1301C19.8754 9.34353 19.8111 8.53841 19.5623 7.78176C19.3136 7.02512 18.8877 6.33885 18.3201 5.78008C17.6891 5.11243 16.8864 4.6315 16.0001 4.39008C15.3465 4.22569 14.6669 4.19171 14.0001 4.29008C13.88 4.30905 13.7574 4.30404 13.6393 4.27534C13.5212 4.24664 13.4099 4.19483 13.312 4.12288C13.214 4.05094 13.1313 3.9603 13.0685 3.8562C13.0058 3.75209 12.9643 3.63659 12.9465 3.51636C12.9286 3.39613 12.9348 3.27356 12.9646 3.15573C12.9944 3.03789 13.0473 2.92713 13.1202 2.82985C13.193 2.73256 13.2844 2.65068 13.3891 2.58893C13.4938 2.52718 13.6097 2.48679 13.7301 2.47008C14.801 2.30729 15.8952 2.39854 16.9243 2.73648C17.9535 3.07441 18.8887 3.64955 19.6547 4.41549C20.4206 5.18144 20.9958 6.11672 21.3337 7.14586C21.6716 8.175 21.7629 9.26918 21.6001 10.3401C21.5684 10.5627 21.4563 10.7659 21.2849 10.9115C21.1136 11.057 20.8949 11.1348 20.6701 11.1301Z"/>
        <path d="M17.17 10.76H17C16.758 10.7229 16.5403 10.5918 16.3942 10.3953C16.2482 10.1987 16.1856 9.95242 16.22 9.70996C16.266 9.42421 16.2428 9.13161 16.1523 8.85669C16.0618 8.58177 15.9067 8.33256 15.7 8.12996C15.4965 7.92463 15.2472 7.77046 14.9725 7.68007C14.6979 7.58969 14.4057 7.56566 14.12 7.60996C13.878 7.64174 13.6331 7.57811 13.4371 7.43254C13.2411 7.28697 13.1095 7.07087 13.07 6.82996C13.0356 6.5875 13.0982 6.34125 13.2442 6.14467C13.3903 5.94808 13.608 5.81703 13.85 5.77996C14.4214 5.6936 15.0052 5.74266 15.5541 5.92318C16.1031 6.10371 16.602 6.41066 17.0107 6.8193C17.4193 7.22794 17.7263 7.72685 17.9068 8.27584C18.0873 8.82483 18.1364 9.40854 18.05 9.97996C18.0175 10.1922 17.9116 10.3865 17.7509 10.5289C17.5902 10.6714 17.3847 10.7531 17.17 10.76Z"/>
        <path d="M17.32 20.7699C17.0312 20.7674 16.7444 20.7202 16.47 20.6299C13.87 19.7499 10.27 18.2099 7.91003 15.8499C5.55003 13.4899 4.00003 9.88993 3.13003 7.27993C2.99665 6.89038 2.95882 6.47448 3.01973 6.06726C3.08064 5.66004 3.2385 5.27341 3.48003 4.93993C3.73177 4.59302 4.06277 4.31129 4.44545 4.11821C4.82813 3.92513 5.25141 3.82629 5.68003 3.82993H8.00003C8.33411 3.83377 8.66076 3.92899 8.94457 4.10527C9.22838 4.28155 9.45852 4.53216 9.61003 4.82993L10.74 6.82993C10.8801 7.09494 10.9534 7.39017 10.9534 7.68993C10.9534 7.9897 10.8801 8.28492 10.74 8.54993L9.87003 10.3999C10.1268 11.2183 10.5721 11.965 11.17 12.5799C11.7821 13.1816 12.5298 13.6274 13.35 13.8799L15.22 12.9999C15.485 12.8598 15.7803 12.7866 16.08 12.7866C16.3798 12.7866 16.675 12.8598 16.94 12.9999L18.94 14.1299C19.2286 14.2906 19.4688 14.5256 19.6359 14.8104C19.8029 15.0953 19.8907 15.4197 19.89 15.7499V18.0899C19.8917 18.5193 19.791 18.9428 19.5962 19.3254C19.4014 19.708 19.1182 20.0387 18.77 20.2899C18.3477 20.5955 17.8413 20.7631 17.32 20.7699ZM5.68003 5.66993C5.54878 5.66798 5.4189 5.69682 5.30081 5.75413C5.18272 5.81144 5.07971 5.89562 5.00003 5.99993C4.92715 6.09358 4.87966 6.20445 4.86215 6.32181C4.84463 6.43918 4.85768 6.55908 4.90003 6.66993C5.57003 8.66993 7.02003 12.3099 9.24003 14.5199C11.46 16.7299 15.1 18.1899 17.08 18.8599C17.193 18.8995 17.3139 18.9111 17.4323 18.8937C17.5508 18.8763 17.6632 18.8304 17.76 18.7599C17.869 18.6793 17.9568 18.5736 18.016 18.4517C18.0752 18.3298 18.104 18.1954 18.1 18.0599V15.7399L16 14.5999L13.83 15.6899C13.6477 15.7813 13.4401 15.8094 13.24 15.7699C11.9513 15.4708 10.7709 14.82 9.83003 13.8899C8.92399 12.9349 8.29186 11.7536 8.00003 10.4699C7.96132 10.2698 7.98943 10.0625 8.08003 9.87993L9.15003 7.70993L8.00003 5.66993H5.68003Z"/>
    </symbol>



</svg>

